<svg width="19" height="19" viewBox="0 0 19 19" fill="none" xmlns="http://www.w3.org/2000/svg">
<g filter="url(#filter0_b_132_1102)">
<path fill-rule="evenodd" clip-rule="evenodd" d="M0.101074 9.49997C0.101074 4.30896 4.30939 0.100647 9.5004 0.100647C14.6914 0.100647 18.8997 4.30896 18.8997 9.49997C18.8997 14.691 14.6914 18.8993 9.5004 18.8993C4.30939 18.8993 0.101074 14.691 0.101074 9.49997ZM1.60107 9.49997C1.60107 5.13739 5.13782 1.60065 9.5004 1.60065C13.863 1.60065 17.3997 5.13739 17.3997 9.49997C17.3997 13.8625 13.863 17.3993 9.5004 17.3993C5.13782 17.3993 1.60107 13.8625 1.60107 9.49997Z" fill="white" fill-opacity="0.25"/>
</g>
<g filter="url(#filter1_b_132_1102)">
<path fill-rule="evenodd" clip-rule="evenodd" d="M9.5004 1.60065C5.13782 1.60065 1.60107 5.13739 1.60107 9.49997C1.60107 13.8625 5.13782 17.3993 9.5004 17.3993C13.863 17.3993 17.3997 13.8625 17.3997 9.49997C17.3997 5.13739 13.863 1.60065 9.5004 1.60065ZM9.14134 5.19125C8.95088 5.19125 8.76822 5.26691 8.63355 5.40158C8.49887 5.53625 8.42322 5.71891 8.42322 5.90937C8.42322 6.09983 8.49887 6.28248 8.63355 6.41716C8.76822 6.55183 8.95088 6.62749 9.14134 6.62749H9.5004C9.69085 6.62749 9.87351 6.55183 10.0082 6.41716C10.1429 6.28248 10.2185 6.09983 10.2185 5.90937C10.2185 5.71891 10.1429 5.53625 10.0082 5.40158C9.87351 5.26691 9.69085 5.19125 9.5004 5.19125H9.14134ZM8.06416 8.06373C7.8737 8.06373 7.69104 8.13939 7.55637 8.27406C7.42169 8.40873 7.34604 8.59139 7.34604 8.78185C7.34604 8.97231 7.42169 9.15496 7.55637 9.28964C7.69104 9.42431 7.8737 9.49997 8.06416 9.49997H8.78228V11.6543H8.06416C7.8737 11.6543 7.69104 11.73 7.55637 11.8647C7.42169 11.9993 7.34604 12.182 7.34604 12.3724C7.34604 12.5629 7.42169 12.7456 7.55637 12.8802C7.69104 13.0149 7.8737 13.0906 8.06416 13.0906H10.9366C11.1271 13.0906 11.3098 13.0149 11.4444 12.8802C11.5791 12.7456 11.6548 12.5629 11.6548 12.3724C11.6548 12.182 11.5791 11.9993 11.4444 11.8647C11.3098 11.73 11.1271 11.6543 10.9366 11.6543H10.2185V8.78185C10.2185 8.59139 10.1429 8.40873 10.0082 8.27406C9.87351 8.13939 9.69085 8.06373 9.5004 8.06373H8.06416Z" fill="white" fill-opacity="0.5"/>
</g>
<defs>
<filter id="filter0_b_132_1102" x="-9.89893" y="-9.89935" width="38.7988" height="38.7986" filterUnits="userSpaceOnUse" color-interpolation-filters="sRGB">
<feFlood flood-opacity="0" result="BackgroundImageFix"/>
<feGaussianBlur in="BackgroundImage" stdDeviation="5"/>
<feComposite in2="SourceAlpha" operator="in" result="effect1_backgroundBlur_132_1102"/>
<feBlend mode="normal" in="SourceGraphic" in2="effect1_backgroundBlur_132_1102" result="shape"/>
</filter>
<filter id="filter1_b_132_1102" x="-8.39893" y="-8.39935" width="35.7988" height="35.7986" filterUnits="userSpaceOnUse" color-interpolation-filters="sRGB">
<feFlood flood-opacity="0" result="BackgroundImageFix"/>
<feGaussianBlur in="BackgroundImage" stdDeviation="5"/>
<feComposite in2="SourceAlpha" operator="in" result="effect1_backgroundBlur_132_1102"/>
<feBlend mode="normal" in="SourceGraphic" in2="effect1_backgroundBlur_132_1102" result="shape"/>
</filter>
</defs>
</svg>
