<svg width="1920" height="117" viewBox="0 0 1920 117" fill="none" xmlns="http://www.w3.org/2000/svg">
<g filter="url(#filter0_b_132_922)">
<path fill-rule="evenodd" clip-rule="evenodd" d="M566.068 48.5204C539.592 55.8164 511.302 63.6122 477.919 70.0844C445.046 76.4578 417.54 84.039 391.252 91.2843C380.039 94.375 369.047 97.4046 357.954 100.253C320.973 109.75 283.636 117 235.332 117C186.943 117 125.984 105.143 77.4499 93.4221C53.113 87.5447 31.7697 81.6683 16.5076 77.2606C8.87506 75.0563 2.75958 73.2182 -1.45331 71.9294C-3.55986 71.285 -5.191 70.7778 -6.29857 70.4307C-6.85236 70.2572 -7.27528 70.1237 -7.56131 70.0331L-7.9999 69.8936C-8.0016 69.8931 -8.00275 69.8927 -6.05734 58.5C-4.11193 47.1073 -4.11196 47.1073 -4.11143 47.1074L-3.70887 47.2354C-3.43591 47.3219 -3.02638 47.4512 -2.48626 47.6204C-1.40602 47.9589 0.196411 48.4572 2.27295 49.0924C6.42621 50.363 12.4749 52.1812 20.0345 54.3644C35.1565 58.7317 56.3089 64.5553 80.4183 70.3778C128.777 82.0567 188.513 93.6 235.332 93.6C282.237 93.6 318.46 86.5879 354.804 77.2542C365.503 74.5066 376.279 71.537 387.374 68.4796C413.85 61.1836 442.14 53.3878 475.523 46.9156C508.396 40.5422 535.903 32.961 562.19 25.7157C573.404 22.625 584.396 19.5954 595.488 16.7468C632.469 7.24962 669.807 0 718.111 0C766.415 0 803.752 7.24962 840.733 16.7468C851.825 19.5954 862.817 22.6249 874.031 25.7156C900.318 32.9609 927.825 40.5422 960.698 46.9156C994.081 53.3878 1022.37 61.1836 1048.85 68.4796C1059.94 71.537 1070.72 74.5066 1081.42 77.2542C1117.76 86.5879 1153.98 93.6 1200.89 93.6C1247.79 93.6 1284.02 86.5879 1320.36 77.2542C1331.06 74.5066 1341.84 71.537 1352.93 68.4796C1379.41 61.1836 1407.7 53.3878 1441.08 46.9156C1473.95 40.5422 1501.46 32.961 1527.75 25.7157C1538.96 22.625 1549.95 19.5954 1561.05 16.7468C1598.03 7.24962 1635.36 0 1683.67 0C1732.06 0 1793.02 11.8567 1841.55 23.5778C1865.89 29.4553 1887.23 35.3317 1902.49 39.7394C1910.12 41.9437 1916.24 43.7818 1920.45 45.0706C1922.56 45.715 1924.19 46.2222 1925.3 46.5692C1925.85 46.7428 1926.28 46.8763 1926.56 46.9669L1926.97 47.0972L1926.99 47.1044L1927 47.1064C1927 47.1069 1927 47.1073 1925.06 58.5L1925.04 58.5792C1923.11 69.8927 1923.11 69.8927 1923.11 69.8926L1923.11 69.8913L1922.71 69.7646C1922.44 69.6781 1922.03 69.5488 1921.49 69.3796C1920.41 69.0411 1918.8 68.5428 1916.73 67.9075C1912.57 66.637 1906.52 64.8188 1898.97 62.6356C1883.84 58.2683 1862.69 52.4447 1838.58 46.6222C1790.22 34.9433 1730.49 23.4 1683.67 23.4C1636.76 23.4 1600.54 30.4121 1564.2 39.7458C1553.5 42.4934 1542.72 45.463 1531.63 48.5204C1505.15 55.8164 1476.86 63.6122 1443.48 70.0844C1410.6 76.4577 1383.1 84.039 1356.81 91.2843C1345.6 94.375 1334.6 97.4046 1323.51 100.253C1286.53 109.75 1249.19 117 1200.89 117C1152.59 117 1115.25 109.75 1078.27 100.253C1067.17 97.4046 1056.18 94.375 1044.97 91.2843C1018.68 84.039 991.175 76.4577 958.302 70.0844C924.919 63.6122 896.629 55.8164 870.153 48.5204C859.058 45.463 848.282 42.4934 837.583 39.7458C801.238 30.4121 765.015 23.4 718.111 23.4C671.206 23.4 634.983 30.4121 598.639 39.7458C587.939 42.4935 577.163 45.4631 566.068 48.5204Z" fill="url(#paint0_linear_132_922)" fill-opacity="0.4"/>
<path d="M-7.69651 68.9408C-7.70117 68.9393 -7.69039 68.942 -7.66881 68.9496M-7.69651 68.9408L-7.66881 68.9496M-7.69651 68.9408L-7.66881 68.9496M-7.69651 68.9408L-7.66881 68.9496M-3.36933 48.6997L-3.3193 48.407C-3.15845 48.4576 -2.98035 48.5135 -2.78528 48.5747C-1.70298 48.9138 -0.0983868 49.4128 1.98041 50.0487C6.13817 51.3206 12.1919 53.1403 19.757 55.3251C34.8897 59.6954 56.0567 65.5232 80.1835 71.3499C128.554 83.0317 188.387 94.6 235.332 94.6C282.349 94.6 318.66 87.5688 355.053 78.2228C365.761 75.4728 376.545 72.5012 387.637 69.4445L387.64 69.4437C414.117 62.1473 442.373 54.3613 475.714 47.8973C508.625 41.5165 536.163 33.9266 562.446 26.6825L562.456 26.6798C573.671 23.5887 584.655 20.5614 595.737 17.7154C632.67 8.23059 669.919 1 718.111 1C766.302 1 803.552 8.23059 840.484 17.7154C851.566 20.5614 862.55 23.5886 873.765 26.6797L873.776 26.6827C900.059 33.9267 927.597 41.5166 960.508 47.8973C993.848 54.3613 1022.1 62.1473 1048.58 69.4437L1048.59 69.4457C1059.68 72.5019 1070.46 75.4732 1081.17 78.2228C1117.56 87.5688 1153.87 94.6 1200.89 94.6C1247.91 94.6 1284.22 87.5688 1320.61 78.2228C1331.32 75.4732 1342.1 72.5019 1353.19 69.4457L1353.2 69.4437C1379.67 62.1473 1407.93 54.3613 1441.27 47.8973C1474.18 41.5166 1501.72 33.9268 1528 26.6828L1528.01 26.6798C1539.23 23.5887 1550.21 20.5614 1561.29 17.7154C1598.23 8.23059 1635.48 1 1683.67 1C1731.93 1 1792.79 12.8317 1841.32 24.5499C1865.63 30.4232 1886.96 36.2955 1902.21 40.7001C1909.84 42.9028 1915.95 44.7394 1920.16 46.0268C1922.26 46.6706 1923.89 47.1771 1925 47.5235L1925.3 46.5692L1925 47.5235C1925.34 47.63 1925.63 47.7214 1925.87 47.7969L1925.77 48.3631C1925.53 49.7872 1925.04 52.6353 1924.07 58.3317L1924.06 58.4076L1924.06 58.4109L1922.37 68.3102L1922.32 68.593C1922.16 68.5424 1921.98 68.4865 1921.79 68.4253C1920.7 68.0862 1919.1 67.5872 1917.02 66.9513C1912.86 65.6794 1906.81 63.8597 1899.24 61.6749C1884.11 57.3045 1862.94 51.4768 1838.82 45.6501C1790.45 33.9683 1730.61 22.4 1683.67 22.4C1636.65 22.4 1600.34 29.4311 1563.95 38.7772C1553.24 41.5273 1542.45 44.4991 1531.36 47.5558L1531.36 47.5563C1504.88 54.8527 1476.63 62.6387 1443.29 69.1027C1410.38 75.4834 1382.84 83.0732 1356.56 90.3172L1356.54 90.3202C1345.33 93.4113 1334.35 96.4386 1323.26 99.2846C1286.33 108.769 1249.08 116 1200.89 116C1152.7 116 1115.45 108.769 1078.52 99.2846C1067.43 96.4386 1056.45 93.4113 1045.23 90.3202L1045.22 90.3172C1018.94 83.0732 991.403 75.4834 958.492 69.1027C925.152 62.6387 896.896 54.8527 870.418 47.5563L870.417 47.556C859.325 44.4992 848.54 41.5273 837.831 38.7772C801.439 29.4311 765.128 22.4 718.111 22.4C671.094 22.4 634.782 29.4311 598.39 38.7772C587.683 41.5268 576.901 44.4981 565.81 47.5544L565.803 47.5564C539.325 54.8527 511.07 62.6387 477.729 69.1027C444.818 75.4834 417.281 83.0732 390.998 90.3172L390.987 90.3202C379.771 93.4113 368.788 96.4386 357.706 99.2846C320.773 108.769 283.524 116 235.332 116C187.068 116 126.206 104.168 77.6846 92.4501C53.3652 86.5769 32.0365 80.7045 16.785 76.2999C9.15805 74.0972 3.04763 72.2606 -1.16078 70.9732C-3.26506 70.3294 -4.89404 69.8229 -5.99955 69.4765C-6.33945 69.37 -6.62987 69.2786 -6.86941 69.203C-6.84256 69.0452 -6.81072 68.8583 -6.77299 68.6369C-6.53035 67.2128 -6.04432 64.3647 -5.0716 58.6683L-3.36933 48.6997Z" stroke="white" stroke-opacity="0.15" stroke-width="2"/>
</g>
<defs>
<filter id="filter0_b_132_922" x="-18" y="-10" width="1955" height="137" filterUnits="userSpaceOnUse" color-interpolation-filters="sRGB">
<feFlood flood-opacity="0" result="BackgroundImageFix"/>
<feGaussianBlur in="BackgroundImage" stdDeviation="5"/>
<feComposite in2="SourceAlpha" operator="in" result="effect1_backgroundBlur_132_922"/>
<feBlend mode="normal" in="SourceGraphic" in2="effect1_backgroundBlur_132_922" result="shape"/>
</filter>
<linearGradient id="paint0_linear_132_922" x1="-8" y1="59.301" x2="1927" y2="59.301" gradientUnits="userSpaceOnUse">
<stop stop-color="#FC1B00" stop-opacity="0.1"/>
<stop offset="0.234375" stop-color="#FC1B00"/>
<stop offset="0.744792" stop-color="#C49C39"/>
<stop offset="1" stop-color="#C49C39" stop-opacity="0.1"/>
</linearGradient>
</defs>
</svg>
