<svg width="1920" height="117" viewBox="0 0 1920 117" fill="none" xmlns="http://www.w3.org/2000/svg">
<g filter="url(#filter0_b_132_922)">
<mask id="path-1-inside-1_132_922" fill="white">
<path fill-rule="evenodd" clip-rule="evenodd" d="M566.068 48.5204C539.592 55.8164 511.302 63.6122 477.919 70.0844C445.046 76.4578 417.54 84.039 391.252 91.2843C380.039 94.375 369.047 97.4046 357.954 100.253C320.973 109.75 283.636 117 235.332 117C186.943 117 125.984 105.143 77.4499 93.4221C53.113 87.5447 31.7697 81.6683 16.5076 77.2606C8.87506 75.0563 2.75958 73.2182 -1.45331 71.9294C-3.55986 71.285 -5.191 70.7778 -6.29857 70.4307C-6.85236 70.2572 -7.27528 70.1237 -7.56131 70.0331L-7.9999 69.8936C-8.0016 69.8931 -8.00275 69.8927 -6.05734 58.5C-4.11193 47.1073 -4.11196 47.1073 -4.11143 47.1074L-3.70887 47.2354C-3.43591 47.3219 -3.02638 47.4512 -2.48626 47.6204C-1.40602 47.9589 0.196411 48.4572 2.27295 49.0924C6.42621 50.363 12.4749 52.1812 20.0345 54.3644C35.1565 58.7317 56.3089 64.5553 80.4183 70.3778C128.777 82.0567 188.513 93.6 235.332 93.6C282.237 93.6 318.46 86.5879 354.804 77.2542C365.503 74.5066 376.279 71.537 387.374 68.4796C413.85 61.1836 442.14 53.3878 475.523 46.9156C508.396 40.5422 535.903 32.961 562.19 25.7157C573.404 22.625 584.396 19.5954 595.488 16.7468C632.469 7.24962 669.807 0 718.111 0C766.415 0 803.752 7.24962 840.733 16.7468C851.825 19.5954 862.817 22.6249 874.031 25.7156C900.318 32.9609 927.825 40.5422 960.698 46.9156C994.081 53.3878 1022.37 61.1836 1048.85 68.4796C1059.94 71.537 1070.72 74.5066 1081.42 77.2542C1117.76 86.5879 1153.98 93.6 1200.89 93.6C1247.79 93.6 1284.02 86.5879 1320.36 77.2542C1331.06 74.5066 1341.84 71.537 1352.93 68.4796C1379.41 61.1836 1407.7 53.3878 1441.08 46.9156C1473.95 40.5422 1501.46 32.961 1527.75 25.7157C1538.96 22.625 1549.95 19.5954 1561.05 16.7468C1598.03 7.24962 1635.36 0 1683.67 0C1732.06 0 1793.02 11.8567 1841.55 23.5778C1865.89 29.4553 1887.23 35.3317 1902.49 39.7394C1910.12 41.9437 1916.24 43.7818 1920.45 45.0706C1922.56 45.715 1924.19 46.2222 1925.3 46.5692C1925.85 46.7428 1926.28 46.8763 1926.56 46.9669L1926.97 47.0972L1926.99 47.1044L1927 47.1064C1927 47.1069 1927 47.1073 1925.06 58.5L1925.04 58.5792C1923.11 69.8927 1923.11 69.8927 1923.11 69.8926L1923.11 69.8913L1922.71 69.7646C1922.44 69.6781 1922.03 69.5488 1921.49 69.3796C1920.41 69.0411 1918.8 68.5428 1916.73 67.9075C1912.57 66.637 1906.52 64.8188 1898.97 62.6356C1883.84 58.2683 1862.69 52.4447 1838.58 46.6222C1790.22 34.9433 1730.49 23.4 1683.67 23.4C1636.76 23.4 1600.54 30.4121 1564.2 39.7458C1553.5 42.4934 1542.72 45.463 1531.63 48.5204C1505.15 55.8164 1476.86 63.6122 1443.48 70.0844C1410.6 76.4577 1383.1 84.039 1356.81 91.2843C1345.6 94.375 1334.6 97.4046 1323.51 100.253C1286.53 109.75 1249.19 117 1200.89 117C1152.59 117 1115.25 109.75 1078.27 100.253C1067.17 97.4046 1056.18 94.375 1044.97 91.2843C1018.68 84.039 991.175 76.4578 958.302 70.0844C924.919 63.6122 896.629 55.8164 870.153 48.5204C859.058 45.463 848.282 42.4934 837.583 39.7458C801.238 30.4121 765.015 23.4 718.111 23.4C671.206 23.4 634.983 30.4121 598.639 39.7458C587.939 42.4935 577.163 45.4631 566.068 48.5204Z"/>
</mask>
<path fill-rule="evenodd" clip-rule="evenodd" d="M566.068 48.5204C539.592 55.8164 511.302 63.6122 477.919 70.0844C445.046 76.4578 417.54 84.039 391.252 91.2843C380.039 94.375 369.047 97.4046 357.954 100.253C320.973 109.75 283.636 117 235.332 117C186.943 117 125.984 105.143 77.4499 93.4221C53.113 87.5447 31.7697 81.6683 16.5076 77.2606C8.87506 75.0563 2.75958 73.2182 -1.45331 71.9294C-3.55986 71.285 -5.191 70.7778 -6.29857 70.4307C-6.85236 70.2572 -7.27528 70.1237 -7.56131 70.0331L-7.9999 69.8936C-8.0016 69.8931 -8.00275 69.8927 -6.05734 58.5C-4.11193 47.1073 -4.11196 47.1073 -4.11143 47.1074L-3.70887 47.2354C-3.43591 47.3219 -3.02638 47.4512 -2.48626 47.6204C-1.40602 47.9589 0.196411 48.4572 2.27295 49.0924C6.42621 50.363 12.4749 52.1812 20.0345 54.3644C35.1565 58.7317 56.3089 64.5553 80.4183 70.3778C128.777 82.0567 188.513 93.6 235.332 93.6C282.237 93.6 318.46 86.5879 354.804 77.2542C365.503 74.5066 376.279 71.537 387.374 68.4796C413.85 61.1836 442.14 53.3878 475.523 46.9156C508.396 40.5422 535.903 32.961 562.19 25.7157C573.404 22.625 584.396 19.5954 595.488 16.7468C632.469 7.24962 669.807 0 718.111 0C766.415 0 803.752 7.24962 840.733 16.7468C851.825 19.5954 862.817 22.6249 874.031 25.7156C900.318 32.9609 927.825 40.5422 960.698 46.9156C994.081 53.3878 1022.37 61.1836 1048.85 68.4796C1059.94 71.537 1070.72 74.5066 1081.42 77.2542C1117.76 86.5879 1153.98 93.6 1200.89 93.6C1247.79 93.6 1284.02 86.5879 1320.36 77.2542C1331.06 74.5066 1341.84 71.537 1352.93 68.4796C1379.41 61.1836 1407.7 53.3878 1441.08 46.9156C1473.95 40.5422 1501.46 32.961 1527.75 25.7157C1538.96 22.625 1549.95 19.5954 1561.05 16.7468C1598.03 7.24962 1635.36 0 1683.67 0C1732.06 0 1793.02 11.8567 1841.55 23.5778C1865.89 29.4553 1887.23 35.3317 1902.49 39.7394C1910.12 41.9437 1916.24 43.7818 1920.45 45.0706C1922.56 45.715 1924.19 46.2222 1925.3 46.5692C1925.85 46.7428 1926.28 46.8763 1926.56 46.9669L1926.97 47.0972L1926.99 47.1044L1927 47.1064C1927 47.1069 1927 47.1073 1925.06 58.5L1925.04 58.5792C1923.11 69.8927 1923.11 69.8927 1923.11 69.8926L1923.11 69.8913L1922.71 69.7646C1922.44 69.6781 1922.03 69.5488 1921.49 69.3796C1920.41 69.0411 1918.8 68.5428 1916.73 67.9075C1912.57 66.637 1906.52 64.8188 1898.97 62.6356C1883.84 58.2683 1862.69 52.4447 1838.58 46.6222C1790.22 34.9433 1730.49 23.4 1683.67 23.4C1636.76 23.4 1600.54 30.4121 1564.2 39.7458C1553.5 42.4934 1542.72 45.463 1531.63 48.5204C1505.15 55.8164 1476.86 63.6122 1443.48 70.0844C1410.6 76.4577 1383.1 84.039 1356.81 91.2843C1345.6 94.375 1334.6 97.4046 1323.51 100.253C1286.53 109.75 1249.19 117 1200.89 117C1152.59 117 1115.25 109.75 1078.27 100.253C1067.17 97.4046 1056.18 94.375 1044.97 91.2843C1018.68 84.039 991.175 76.4578 958.302 70.0844C924.919 63.6122 896.629 55.8164 870.153 48.5204C859.058 45.463 848.282 42.4934 837.583 39.7458C801.238 30.4121 765.015 23.4 718.111 23.4C671.206 23.4 634.983 30.4121 598.639 39.7458C587.939 42.4935 577.163 45.4631 566.068 48.5204Z" fill="url(#paint0_linear_132_922)" fill-opacity="0.4"/>
<path d="M477.919 70.0844L478.3 72.0479L477.919 70.0844ZM566.068 48.5204L566.6 50.4486L566.068 48.5204ZM391.252 91.2843L391.784 93.2124H391.784L391.252 91.2843ZM357.954 100.253L357.457 98.316L357.954 100.253ZM77.4499 93.4221L77.9194 91.478L77.4499 93.4221ZM16.5076 77.2606L15.9527 79.1821H15.9527L16.5076 77.2606ZM-1.45331 71.9294L-0.86824 70.0169H-0.868242L-1.45331 71.9294ZM-6.29857 70.4307L-5.70054 68.5222H-5.70054L-6.29857 70.4307ZM-7.56131 70.0331L-8.16731 71.9391L-8.16536 71.9397L-7.56131 70.0331ZM-7.9999 69.8936L-8.60955 71.7985L-8.60591 71.7996L-7.9999 69.8936ZM-4.11143 47.1074L-4.72475 49.0111L-4.71737 49.0134L-4.11143 47.1074ZM-3.70887 47.2354L-4.31481 49.1414L-4.31291 49.142L-3.70887 47.2354ZM-2.48626 47.6204L-3.08429 49.5289H-3.08429L-2.48626 47.6204ZM2.27295 49.0924L2.85802 47.1799H2.85802L2.27295 49.0924ZM20.0345 54.3644L20.5894 52.4429L20.0345 54.3644ZM80.4183 70.3778L80.8878 68.4337L80.4183 70.3778ZM354.804 77.2542L354.307 75.3171L354.804 77.2542ZM387.374 68.4796L386.843 66.5515L387.374 68.4796ZM475.523 46.9156L475.904 48.879L475.523 46.9156ZM562.19 25.7157L561.659 23.7876L562.19 25.7157ZM595.488 16.7468L595.986 18.6839L595.488 16.7468ZM840.733 16.7468L840.236 18.6839L840.733 16.7468ZM874.031 25.7156L873.499 27.6437L874.031 25.7156ZM960.698 46.9156L961.079 44.9521L960.698 46.9156ZM1048.85 68.4796L1049.38 66.5515L1048.85 68.4796ZM1081.42 77.2542L1081.91 75.3171L1081.42 77.2542ZM1320.36 77.2542L1319.86 75.3171L1320.36 77.2542ZM1352.93 68.4796L1352.4 66.5515L1352.93 68.4796ZM1441.08 46.9156L1440.7 44.9521L1441.08 46.9156ZM1527.75 25.7157L1528.28 27.6438L1527.75 25.7157ZM1561.05 16.7468L1561.54 18.684V18.6839L1561.05 16.7468ZM1841.55 23.5778L1841.08 25.522L1841.55 23.5778ZM1902.49 39.7394L1903.05 37.8179V37.8179L1902.49 39.7394ZM1920.45 45.0706L1919.87 46.9831L1920.45 45.0706ZM1925.3 46.5692L1924.7 48.4777L1924.7 48.4778L1925.3 46.5692ZM1926.56 46.9669L1927.17 45.0609L1927.17 45.0603L1926.56 46.9669ZM1926.97 47.0972L1927.58 45.1923L1927.58 45.1912L1926.97 47.0972ZM1926.99 47.1044L1926.38 49.0093L1926.39 49.0115L1926.4 49.0137L1926.99 47.1044ZM1927 47.1064L1927.62 45.205L1927.61 45.201L1927.6 45.1971L1927 47.1064ZM1925.06 58.5L1927.03 58.8432L1927.03 58.8366L1925.06 58.5ZM1925.04 58.5792L1923.07 58.236L1923.07 58.2426L1925.04 58.5792ZM1923.11 69.8926L1922.49 71.7949L1922.54 71.8101L1922.59 71.8229L1923.11 69.8926ZM1923.11 69.8913L1923.72 67.989L1923.71 67.9852L1923.11 69.8913ZM1922.71 69.7646L1923.31 67.8585L1923.31 67.858L1922.71 69.7646ZM1921.49 69.3796L1920.89 71.2881L1921.49 69.3796ZM1916.73 67.9075L1917.31 65.995L1916.73 67.9075ZM1898.97 62.6356L1899.52 60.7142V60.7142L1898.97 62.6356ZM1838.58 46.6222L1839.05 44.678L1838.58 46.6222ZM1564.2 39.7458L1564.69 41.6829L1564.2 39.7458ZM1531.63 48.5204L1532.16 50.4485L1531.63 48.5204ZM1443.48 70.0844L1443.86 72.0479L1443.48 70.0844ZM1356.81 91.2843L1357.34 93.2124L1356.81 91.2843ZM1323.51 100.253L1323.01 98.316L1323.51 100.253ZM1078.27 100.253L1078.76 98.316L1078.27 100.253ZM1044.97 91.2843L1044.44 93.2124L1044.97 91.2843ZM958.302 70.0844L957.921 72.0479L958.302 70.0844ZM870.153 48.5204L869.621 50.4485L870.153 48.5204ZM837.583 39.7458L838.08 37.8086L837.583 39.7458ZM598.639 39.7458L599.136 41.6829L598.639 39.7458ZM478.3 72.0479C511.768 65.5591 540.126 57.7437 566.6 50.4486L565.537 46.5923C539.058 53.8891 510.837 61.6652 477.539 68.121L478.3 72.0479ZM391.784 93.2124C418.074 85.9664 445.512 78.4047 478.3 72.0479L477.539 68.121C444.581 74.5108 417.006 82.1116 390.721 89.3562L391.784 93.2124ZM358.452 102.19C369.564 99.3366 380.573 96.3023 391.784 93.2124L390.721 89.3562C379.504 92.4477 368.529 95.4725 357.457 98.316L358.452 102.19ZM235.332 119C283.861 119 321.374 111.712 358.452 102.19L357.457 98.316C320.572 107.788 283.412 115 235.332 115V119ZM76.9804 95.3663C125.539 107.093 186.692 119 235.332 119V115C187.194 115 126.429 103.193 77.9194 91.478L76.9804 95.3663ZM15.9527 79.1821C31.2359 83.5959 52.6084 89.4803 76.9804 95.3663L77.9194 91.478C53.6175 85.609 32.3034 79.7408 17.0625 75.3392L15.9527 79.1821ZM-2.03839 73.8419C2.18349 75.1335 8.30906 76.9746 15.9527 79.1821L17.0625 75.3392C9.44105 73.1381 3.33567 71.303 -0.86824 70.0169L-2.03839 73.8419ZM-6.89659 72.3392C-5.78492 72.6876 -4.14946 73.1961 -2.03839 73.8419L-0.868242 70.0169C-2.97026 69.3739 -4.59708 68.868 -5.70054 68.5222L-6.89659 72.3392ZM-8.16536 71.9397C-7.87738 72.0309 -7.45245 72.1651 -6.89659 72.3392L-5.70054 68.5222C-6.25226 68.3494 -6.67318 68.2165 -6.95726 68.1265L-8.16536 71.9397ZM-8.0288 58.1634C-9.00149 63.8596 -9.48762 66.7083 -9.73037 68.1329C-9.85166 68.8448 -9.91243 69.2025 -9.9428 69.3825C-9.95765 69.4706 -9.96621 69.5219 -9.9711 69.5522C-9.9723 69.5595 -9.9777 69.5926 -9.98239 69.6279C-9.98385 69.6389 -9.98665 69.6607 -9.98946 69.6879C-9.99141 69.707 -9.99795 69.771 -9.9996 69.8531C-9.99961 69.8539 -10.0196 70.1923 -9.8793 70.5778C-9.78497 70.8369 -9.59684 71.1823 -9.2359 71.466C-9.06862 71.5975 -8.90903 71.6798 -8.79002 71.7309C-8.74591 71.7493 -8.67865 71.7749 -8.65582 71.783C-8.63273 71.7909 -8.60956 71.7985 -8.60955 71.7985L-7.39025 67.9888C-7.42229 67.9786 -7.08583 68.0682 -6.76398 68.3212C-6.40307 68.6049 -6.21496 68.9503 -6.12064 69.2094C-5.98035 69.5947 -6.00039 69.9329 -6.0004 69.9333C-6.00204 70.0151 -6.00854 70.0786 -6.01041 70.0968C-6.01314 70.1233 -6.01581 70.144 -6.01709 70.1536C-6.02103 70.1833 -6.02473 70.2051 -6.02232 70.1902C-6.02 70.1758 -6.01373 70.138 -5.99853 70.048C-5.9688 69.8717 -5.90859 69.5172 -5.7872 68.8048C-5.54459 67.381 -5.05859 64.5331 -4.08587 58.8366L-8.0288 58.1634ZM-3.49812 45.2038C-3.4429 45.2216 -3.75277 45.1037 -4.13175 45.1075C-4.62625 45.1126 -5.06318 45.2981 -5.38904 45.5687C-5.65714 45.7913 -5.8001 46.0292 -5.85797 46.1329C-5.92441 46.252 -5.96435 46.3526 -5.98349 46.4035C-6.02164 46.505 -6.04273 46.5872 -6.04835 46.609C-6.05693 46.6423 -6.06283 46.6689 -6.06559 46.6815C-6.07124 46.7074 -6.07514 46.7279 -6.07621 46.7335C-6.07784 46.742 -6.07911 46.7489 -6.07978 46.7527C-6.08202 46.765 -6.08439 46.7787 -6.08609 46.7885C-6.09032 46.8129 -6.09828 46.8593 -6.11345 46.9479C-6.14399 47.1263 -6.2049 47.4827 -6.3265 48.1946C-6.56974 49.6188 -7.0561 52.467 -8.0288 58.1634L-4.08587 58.8366C-3.11316 53.1402 -2.62683 50.2921 -2.3836 48.8681C-2.26197 48.156 -2.20119 47.8004 -2.1708 47.6228C-2.15551 47.5334 -2.14818 47.4908 -2.14471 47.4708C-2.14256 47.4584 -2.14298 47.4609 -2.14421 47.4677C-2.14463 47.47 -2.14571 47.4759 -2.14719 47.4837C-2.14811 47.4885 -2.15191 47.5084 -2.15748 47.534C-2.16021 47.5465 -2.16607 47.5729 -2.17463 47.6061C-2.18022 47.6279 -2.2013 47.71 -2.23943 47.8114C-2.25856 47.8623 -2.29849 47.9629 -2.36493 48.082C-2.42279 48.1857 -2.56575 48.4236 -2.83384 48.6462C-3.1597 48.9167 -3.59662 49.1023 -4.09112 49.1073C-4.4701 49.1112 -4.77996 48.9933 -4.72474 49.0111L-3.49812 45.2038ZM-1.88824 45.7119C-2.42629 45.5433 -2.83382 45.4147 -3.10483 45.3288L-4.31291 49.142C-4.03801 49.2291 -3.62646 49.359 -3.08429 49.5289L-1.88824 45.7119ZM2.85802 47.1799C0.786007 46.5461 -0.812104 46.0491 -1.88824 45.7119L-3.08429 49.5289C-1.99994 49.8687 -0.393185 50.3683 1.68788 51.005L2.85802 47.1799ZM20.5894 52.4429C13.0409 50.2629 7.0023 48.4478 2.85802 47.1799L1.68787 51.005C5.85013 52.2783 11.9089 54.0994 19.4795 56.2858L20.5894 52.4429ZM80.8878 68.4337C56.8135 62.6197 35.6903 56.8041 20.5894 52.4429L19.4795 56.2858C34.6228 60.6592 55.8044 66.491 79.9487 72.322L80.8878 68.4337ZM235.332 91.6C188.764 91.6 129.222 80.1066 80.8878 68.4337L79.9487 72.322C128.332 84.0067 188.262 95.6 235.332 95.6V91.6ZM354.307 75.3171C318.059 84.626 282.012 91.6 235.332 91.6V95.6C282.461 95.6 318.861 88.5498 355.302 79.1913L354.307 75.3171ZM386.843 66.5515C375.745 69.6097 364.986 72.5745 354.307 75.3171L355.302 79.1913C366.021 76.4386 376.814 73.4642 387.905 70.4077L386.843 66.5515ZM475.143 44.9521C441.674 51.4409 413.316 59.2563 386.843 66.5515L387.905 70.4077C414.384 63.111 442.606 55.3348 475.904 48.879L475.143 44.9521ZM561.659 23.7876C535.369 31.0336 507.931 38.5953 475.143 44.9521L475.904 48.879C508.862 42.4892 536.437 34.8884 562.722 27.6438L561.659 23.7876ZM594.991 14.8097C583.879 17.6634 572.87 20.6977 561.659 23.7876L562.722 27.6438C573.938 24.5523 584.913 21.5275 595.986 18.6839L594.991 14.8097ZM718.111 -2C669.582 -2 632.068 5.28768 594.991 14.8097L595.986 18.6839C632.87 9.21155 670.031 2 718.111 2V-2ZM841.231 14.8097C804.153 5.28768 766.639 -2 718.111 -2V2C766.19 2 803.351 9.21155 840.236 18.6839L841.231 14.8097ZM874.562 23.7875C863.351 20.6976 852.342 17.6633 841.231 14.8097L840.236 18.6839C851.308 21.5274 862.283 24.5523 873.499 27.6437L874.562 23.7875ZM961.079 44.9521C928.291 38.5953 900.852 31.0335 874.562 23.7875L873.499 27.6437C899.784 34.8884 927.359 42.4892 960.317 48.879L961.079 44.9521ZM1049.38 66.5515C1022.91 59.2563 994.547 51.4409 961.079 44.9521L960.317 48.879C993.615 55.3348 1021.84 63.111 1048.32 70.4077L1049.38 66.5515ZM1081.91 75.3171C1071.24 72.5745 1060.48 69.6097 1049.38 66.5515L1048.32 70.4077C1059.41 73.4642 1070.2 76.4386 1080.92 79.1913L1081.91 75.3171ZM1200.89 91.6C1154.21 91.6 1118.16 84.626 1081.91 75.3171L1080.92 79.1913C1117.36 88.5498 1153.76 95.6 1200.89 95.6V91.6ZM1319.86 75.3171C1283.62 84.626 1247.57 91.6 1200.89 91.6V95.6C1248.02 95.6 1284.42 88.5498 1320.86 79.1913L1319.86 75.3171ZM1352.4 66.5515C1341.3 69.6097 1330.54 72.5745 1319.86 75.3171L1320.86 79.1913C1331.58 76.4386 1342.37 73.4642 1353.46 70.4077L1352.4 66.5515ZM1440.7 44.9521C1407.23 51.4409 1378.87 59.2563 1352.4 66.5515L1353.46 70.4077C1379.94 63.111 1408.16 55.3348 1441.46 48.879L1440.7 44.9521ZM1527.22 23.7876C1500.93 31.0336 1473.49 38.5953 1440.7 44.9521L1441.46 48.879C1474.42 42.4892 1501.99 34.8884 1528.28 27.6438L1527.22 23.7876ZM1560.55 14.8097C1549.44 17.6634 1538.43 20.6977 1527.22 23.7876L1528.28 27.6438C1539.5 24.5523 1550.47 21.5275 1561.54 18.684L1560.55 14.8097ZM1683.67 -2C1635.14 -2 1597.63 5.28768 1560.55 14.8097L1561.54 18.6839C1598.43 9.21155 1635.59 2 1683.67 2V-2ZM1842.02 21.6337C1793.46 9.9066 1732.31 -2 1683.67 -2V2C1731.81 2 1792.57 13.8067 1841.08 25.522L1842.02 21.6337ZM1903.05 37.8179C1887.76 33.4041 1866.39 27.5197 1842.02 21.6337L1841.08 25.522C1865.38 31.391 1886.7 37.2593 1901.94 41.6609L1903.05 37.8179ZM1921.04 43.1581C1916.82 41.8665 1910.69 40.0254 1903.05 37.8179L1901.94 41.6608C1909.56 43.8619 1915.66 45.697 1919.87 46.9831L1921.04 43.1581ZM1925.9 44.6608C1924.78 44.3124 1923.15 43.8039 1921.04 43.1581L1919.87 46.9831C1921.97 47.6261 1923.6 48.132 1924.7 48.4777L1925.9 44.6608ZM1927.17 45.0603C1926.88 44.9691 1926.45 44.8349 1925.9 44.6607L1924.7 48.4778C1925.25 48.6507 1925.67 48.7835 1925.96 48.8735L1927.17 45.0603ZM1927.6 45.1994L1927.58 45.1923L1926.36 49.0022L1926.38 49.0093L1927.6 45.1994ZM1927.6 45.1971L1927.59 45.1951L1926.4 49.0137L1926.4 49.0156L1927.6 45.1971ZM1927.03 58.8366C1928 53.1403 1928.49 50.2917 1928.73 48.8671C1928.85 48.1552 1928.91 47.7976 1928.94 47.6176C1928.96 47.5295 1928.97 47.4784 1928.97 47.4484C1928.97 47.441 1928.98 47.4086 1928.98 47.374C1928.98 47.3632 1928.99 47.3419 1928.99 47.3152C1928.99 47.2966 1929 47.2339 1929 47.1534C1929 47.1126 1929 47.0357 1928.99 46.9395C1928.99 46.8562 1928.97 46.6668 1928.89 46.44C1928.8 46.1848 1928.61 45.8363 1928.25 45.5472C1928.08 45.4126 1927.92 45.3279 1927.8 45.2749C1927.76 45.2559 1927.69 45.2294 1927.67 45.221C1927.64 45.2129 1927.62 45.205 1927.62 45.205L1926.38 49.0077C1926.38 49.0077 1926.36 48.9998 1926.33 48.9917C1926.31 48.9833 1926.24 48.9568 1926.2 48.9378C1926.08 48.8848 1925.91 48.8001 1925.75 48.6656C1925.39 48.3765 1925.2 48.028 1925.11 47.7728C1925.03 47.5461 1925.01 47.3568 1925.01 47.2736C1925 47.1775 1925 47.1007 1925 47.0601C1925 46.98 1925.01 46.9178 1925.01 46.9C1925.01 46.8741 1925.02 46.8539 1925.02 46.8445C1925.02 46.8155 1925.02 46.7943 1925.02 46.8092C1925.02 46.8238 1925.01 46.8618 1925 46.9519C1924.97 47.1282 1924.91 47.4827 1924.79 48.1951C1924.54 49.619 1924.06 52.4669 1923.09 58.1634L1927.03 58.8366ZM1927.01 58.9224L1927.03 58.8432L1923.09 58.1568L1923.07 58.236L1927.01 58.9224ZM1922.59 71.8229C1922.54 71.8107 1922.81 71.8947 1923.12 71.8925C1923.53 71.8897 1923.94 71.7617 1924.27 71.5202C1924.78 71.1607 1924.95 70.672 1924.96 70.6583C1925.01 70.5417 1925.03 70.4464 1925.04 70.4202C1925.05 70.3811 1925.06 70.3499 1925.06 70.3349C1925.07 70.3043 1925.07 70.2802 1925.07 70.2736C1925.08 70.2636 1925.08 70.2555 1925.08 70.2512C1925.08 70.2371 1925.08 70.222 1925.09 70.2125C1925.09 70.1878 1925.1 70.1414 1925.11 70.0534C1925.14 69.8762 1925.2 69.5222 1925.32 68.8152C1925.57 67.401 1926.05 64.5725 1927.01 58.9158L1923.07 58.2426C1922.11 63.8994 1921.62 66.7277 1921.38 68.1418C1921.26 68.8491 1921.2 69.2021 1921.17 69.3783C1921.16 69.4671 1921.15 69.5091 1921.14 69.5286C1921.14 69.5412 1921.14 69.537 1921.14 69.5285C1921.15 69.5256 1921.15 69.5185 1921.15 69.5093C1921.15 69.5034 1921.15 69.4798 1921.16 69.4496C1921.16 69.4348 1921.17 69.4037 1921.18 69.3646C1921.19 69.3385 1921.22 69.2433 1921.26 69.1267C1921.27 69.1132 1921.45 68.6245 1921.95 68.2649C1922.29 68.0235 1922.69 67.8954 1923.1 67.8926C1923.42 67.8904 1923.68 67.9744 1923.63 67.9622L1922.59 71.8229ZM1922.49 71.7936L1922.49 71.7949L1923.73 67.9903L1923.72 67.9891L1922.49 71.7936ZM1920.89 71.2881C1921.43 71.4567 1921.83 71.5853 1922.1 71.6711L1923.31 67.858C1923.04 67.7709 1922.63 67.641 1922.08 67.4711L1920.89 71.2881ZM1916.14 69.8201C1918.21 70.4539 1919.81 70.9509 1920.89 71.2881L1922.08 67.4711C1921 67.1313 1919.39 66.6317 1917.31 65.995L1916.14 69.8201ZM1898.41 64.5571C1905.96 66.7371 1912 68.5522 1916.14 69.8201L1917.31 65.995C1913.15 64.7217 1907.09 62.9006 1899.52 60.7142L1898.41 64.5571ZM1838.11 48.5663C1862.19 54.3803 1883.31 60.1959 1898.41 64.5571L1899.52 60.7142C1884.38 56.3408 1863.2 50.509 1839.05 44.678L1838.11 48.5663ZM1683.67 25.4C1730.24 25.4 1789.78 36.8934 1838.11 48.5663L1839.05 44.678C1790.67 32.9933 1730.74 21.4 1683.67 21.4V25.4ZM1564.69 41.6829C1600.94 32.374 1636.99 25.4 1683.67 25.4V21.4C1636.54 21.4 1600.14 28.4502 1563.7 37.8086L1564.69 41.6829ZM1532.16 50.4485C1543.26 47.3903 1554.01 44.4255 1564.69 41.6829L1563.7 37.8086C1552.98 40.5614 1542.19 43.5357 1531.09 46.5923L1532.16 50.4485ZM1443.86 72.0479C1477.33 65.5591 1505.68 57.7437 1532.16 50.4485L1531.09 46.5923C1504.62 53.889 1476.39 61.6652 1443.1 68.121L1443.86 72.0479ZM1357.34 93.2124C1383.63 85.9664 1411.07 78.4047 1443.86 72.0479L1443.1 68.121C1410.14 74.5108 1382.56 82.1116 1356.28 89.3561L1357.34 93.2124ZM1324.01 102.19C1335.12 99.3366 1346.13 96.3023 1357.34 93.2124L1356.28 89.3561C1345.06 92.4477 1334.09 95.4725 1323.01 98.316L1324.01 102.19ZM1200.89 119C1249.42 119 1286.93 111.712 1324.01 102.19L1323.01 98.316C1286.13 107.788 1248.97 115 1200.89 115V119ZM1077.77 102.19C1114.85 111.712 1152.36 119 1200.89 119V115C1152.81 115 1115.65 107.788 1078.76 98.316L1077.77 102.19ZM1044.44 93.2124C1055.65 96.3023 1066.66 99.3366 1077.77 102.19L1078.76 98.316C1067.69 95.4725 1056.72 92.4477 1045.5 89.3561L1044.44 93.2124ZM957.921 72.0479C990.709 78.4047 1018.15 85.9664 1044.44 93.2124L1045.5 89.3561C1019.22 82.1116 991.641 74.5108 958.683 68.121L957.921 72.0479ZM869.621 50.4485C896.095 57.7437 924.453 65.5591 957.921 72.0479L958.683 68.121C925.385 61.6652 897.163 53.889 870.684 46.5923L869.621 50.4485ZM837.085 41.6829C847.764 44.4255 858.524 47.3903 869.621 50.4485L870.684 46.5923C859.592 43.5357 848.799 40.5614 838.08 37.8086L837.085 41.6829ZM718.111 25.4C764.791 25.4 800.837 32.374 837.085 41.6829L838.08 37.8086C801.639 28.4502 765.24 21.4 718.111 21.4V25.4ZM599.136 41.6829C635.384 32.374 671.431 25.4 718.111 25.4V21.4C670.982 21.4 634.582 28.4502 598.141 37.8086L599.136 41.6829ZM566.6 50.4486C577.698 47.3903 588.457 44.4255 599.136 41.6829L598.141 37.8086C587.422 40.5614 576.629 43.5358 565.537 46.5923L566.6 50.4486ZM-8.60591 71.7996L-8.16731 71.9391L-6.9553 68.1271L-7.3939 67.9877L-8.60591 71.7996ZM-3.10293 45.3294L-3.50548 45.2014L-4.71737 49.0134L-4.31481 49.1414L-3.10293 45.3294ZM1927.58 45.1912L1927.17 45.0609L1925.96 48.8729L1926.37 49.0033L1927.58 45.1912ZM1922.1 71.6707L1922.5 71.7974L1923.71 67.9852L1923.31 67.8585L1922.1 71.6707Z" fill="white" fill-opacity="0.15" mask="url(#path-1-inside-1_132_922)"/>
</g>
<defs>
<filter id="filter0_b_132_922" x="-18" y="-10" width="1955" height="137" filterUnits="userSpaceOnUse" color-interpolation-filters="sRGB">
<feFlood flood-opacity="0" result="BackgroundImageFix"/>
<feGaussianBlur in="BackgroundImage" stdDeviation="5"/>
<feComposite in2="SourceAlpha" operator="in" result="effect1_backgroundBlur_132_922"/>
<feBlend mode="normal" in="SourceGraphic" in2="effect1_backgroundBlur_132_922" result="shape"/>
</filter>
<linearGradient id="paint0_linear_132_922" x1="-8" y1="59.301" x2="1927" y2="59.301" gradientUnits="userSpaceOnUse">
<stop stop-color="#FC1B00" stop-opacity="0.1"/>
<stop offset="0.234375" stop-color="#FC1B00"/>
<stop offset="0.744792" stop-color="#C49C39"/>
<stop offset="1" stop-color="#C49C39" stop-opacity="0.1"/>
</linearGradient>
</defs>
</svg>
