<svg width="26" height="30" viewBox="0 0 26 30" fill="none" xmlns="http://www.w3.org/2000/svg">
<path d="M12.995 4.86499L12.9958 4.86499C15.3521 4.86317 17.6561 5.56036 19.6161 6.86835C21.5761 8.17634 23.104 10.0363 24.0066 12.213C24.9092 14.3896 25.1458 16.7851 24.6866 19.0963C24.2273 21.4074 23.0928 23.5304 21.4266 25.1966C19.7604 26.8628 17.6374 27.9973 15.3262 28.4566C13.0151 28.9158 10.6196 28.6792 8.44295 27.7766C6.26631 26.8741 4.40632 25.3461 3.09834 23.3861C1.79035 21.4261 1.09315 19.1221 1.09497 16.7658V16.765C1.09497 13.6089 2.34872 10.5821 4.5804 8.35043C6.81208 6.11875 9.83891 4.86499 12.995 4.86499ZM0.0949746 16.765C0.0949746 13.3437 1.45408 10.0625 3.87329 7.64332C6.29251 5.2241 9.57369 3.86499 12.995 3.86499L0.0949746 16.765Z" fill="#151515" fill-opacity="0.5" stroke="url(#paint0_linear_117_1832)" stroke-width="2"/>
<path fill-rule="evenodd" clip-rule="evenodd" d="M12.9948 5.965C15.1337 5.96302 17.2251 6.59559 19.0043 7.78264C20.7835 8.9697 22.1706 10.6579 22.99 12.6336C23.8095 14.6092 24.0244 16.7836 23.6076 18.8815C23.1908 20.9793 22.161 22.9064 20.6486 24.4188C19.1362 25.9312 17.2092 26.961 15.1113 27.3778C13.0134 27.7946 10.8391 27.5796 8.86339 26.7602C6.88772 25.9408 5.19953 24.5537 4.01247 22.7745C2.82541 20.9952 2.19285 18.9039 2.19483 16.765C2.19483 13.9007 3.33267 11.1536 5.35807 9.12825C7.38346 7.10285 10.1305 5.965 12.9948 5.965Z" fill="url(#paint1_linear_117_1832)"/>
<path fill-rule="evenodd" clip-rule="evenodd" d="M12.9955 7.42746C14.8451 7.42559 16.6537 7.97245 18.1923 8.99885C19.731 10.0252 20.9305 11.485 21.6392 13.1935C22.3479 14.9019 22.5338 16.7822 22.1734 18.5963C21.813 20.4104 20.9226 22.0769 19.6147 23.3847C18.3069 24.6926 16.6404 25.583 14.8263 25.9434C13.0122 26.3038 11.1319 26.1179 9.42349 25.4092C7.71506 24.7005 6.25527 23.5009 5.22888 21.9623C4.20248 20.4236 3.6556 18.6151 3.65748 16.7655C3.65748 14.2889 4.64131 11.9137 6.39254 10.1625C8.14376 8.41129 10.5189 7.42746 12.9955 7.42746Z" fill="url(#paint2_radial_117_1832)"/>
<path style="mix-blend-mode:multiply" opacity="0.75" fill-rule="evenodd" clip-rule="evenodd" d="M25.795 16.425C25.795 19.8198 24.4464 23.0755 22.0459 25.476C19.6455 27.8764 16.3897 29.225 12.995 29.225C9.60019 29.225 6.34445 27.8764 3.94399 25.476C1.54352 23.0755 0.194964 19.8198 0.194964 16.425C0.195374 14.3912 0.696807 12.3889 1.65496 10.595C0.585066 12.5613 0.0448375 14.772 0.0872824 17.0101C0.129727 19.2482 0.753393 21.4368 1.89707 23.3611C3.04074 25.2854 4.66511 26.8793 6.61075 27.9863C8.55639 29.0932 10.7565 29.6753 12.995 29.6753C15.2335 29.6753 17.4335 29.0932 19.3792 27.9863C21.3248 26.8793 22.9492 25.2854 24.0929 23.3611C25.2365 21.4368 25.8602 19.2482 25.9026 17.0101C25.9451 14.772 25.4049 12.5613 24.335 10.595C25.2931 12.3889 25.7945 14.3912 25.795 16.425Z" fill="url(#paint3_linear_117_1832)"/>
<path fill-rule="evenodd" clip-rule="evenodd" d="M6.21509 28.425C6.45385 28.4898 6.70647 28.4823 6.94095 28.4034C7.17544 28.3246 7.38125 28.1779 7.53232 27.982C7.6834 27.7861 7.77295 27.5497 7.78963 27.3029C7.80631 27.0561 7.74937 26.8099 7.62603 26.5954C7.50268 26.381 7.31849 26.2079 7.09675 26.0982C6.87501 25.9885 6.6257 25.9471 6.38039 25.9792C6.13509 26.0113 5.90482 26.1154 5.71874 26.2784C5.53266 26.4415 5.39916 26.656 5.3351 26.895C5.24945 27.2146 5.29398 27.5551 5.45893 27.8419C5.62388 28.1286 5.89579 28.3383 6.21509 28.425Z" fill="url(#paint4_radial_117_1832)"/>
<path style="mix-blend-mode:screen" fill-rule="evenodd" clip-rule="evenodd" d="M6.12494 28.235C6.36822 28.2861 6.62182 28.2448 6.83628 28.119C7.05075 27.9933 7.2107 27.7922 7.28494 27.555C7.33606 27.3117 7.29472 27.0581 7.169 26.8436C7.04328 26.6292 6.8422 26.4692 6.60495 26.395C6.48478 26.3618 6.3592 26.3529 6.23555 26.3687C6.11189 26.3845 5.99261 26.4248 5.88466 26.4871C5.7767 26.5495 5.68224 26.6327 5.60675 26.7319C5.53126 26.8311 5.47626 26.9443 5.44494 27.065C5.39057 27.3084 5.42915 27.5634 5.55311 27.7799C5.67707 27.9963 5.87746 28.1587 6.11494 28.235H6.12494Z" fill="url(#paint5_radial_117_1832)"/>
<path style="mix-blend-mode:screen" fill-rule="evenodd" clip-rule="evenodd" d="M5.65496 27.755C5.72131 27.9093 5.84478 28.0318 5.9995 28.0971C6.15422 28.1623 6.32819 28.1652 6.48496 28.105C6.63458 28.066 6.7682 27.981 6.86707 27.8621C6.96594 27.7432 7.02509 27.5964 7.0362 27.4421C7.0473 27.2879 7.00982 27.1341 6.929 27.0022C6.84819 26.8704 6.72811 26.7672 6.58564 26.7071C6.44316 26.647 6.28544 26.6331 6.13463 26.6673C5.98382 26.7014 5.8475 26.782 5.74482 26.8976C5.64213 27.0132 5.57825 27.1581 5.56214 27.3119C5.54602 27.4656 5.57847 27.6206 5.65496 27.755Z" fill="url(#paint6_radial_117_1832)"/>
<path style="mix-blend-mode:screen" opacity="0.5" fill-rule="evenodd" clip-rule="evenodd" d="M6.82515 28.345C7.00886 28.2843 7.17502 28.1797 7.30919 28.0403C7.44336 27.9009 7.54151 27.7309 7.59515 27.545C7.64514 27.3583 7.64726 27.162 7.6013 26.9742C7.55535 26.7865 7.46281 26.6133 7.33224 26.4708C7.20168 26.3283 7.03729 26.221 6.85428 26.1588C6.67127 26.0966 6.47553 26.0815 6.28516 26.115C6.37824 26.1053 6.47207 26.1053 6.56516 26.115C6.86665 26.1993 7.12323 26.3982 7.28017 26.6691C7.4371 26.94 7.48195 27.2615 7.40515 27.565C7.36274 27.7208 7.28958 27.8665 7.18997 27.9936C7.09036 28.1207 6.96631 28.2266 6.82515 28.305V28.345Z" fill="url(#paint7_radial_117_1832)"/>
<path d="M7.36505 25.795C7.56674 25.907 7.75755 26.0376 7.93505 26.185C8.03427 26.2521 8.10669 26.3521 8.1396 26.4673C8.17252 26.5825 8.16383 26.7056 8.11505 26.815C7.99505 27.015 7.76505 27.065 7.47505 26.975C7.25882 26.8961 7.0511 26.7956 6.85506 26.675C6.65338 26.563 6.46255 26.4324 6.28505 26.285C6.06505 26.085 5.98506 25.865 6.10506 25.655C6.17239 25.5559 6.27437 25.4855 6.39095 25.4578C6.50753 25.43 6.63027 25.4469 6.73505 25.505C6.95693 25.5734 7.16878 25.671 7.36505 25.795Z" fill="url(#paint8_linear_117_1832)"/>
<path style="mix-blend-mode:multiply" fill-rule="evenodd" clip-rule="evenodd" d="M7.93504 26.185C7.75755 26.0376 7.56673 25.907 7.36505 25.795C7.16877 25.671 6.95693 25.5734 6.73505 25.505C6.63582 25.4874 6.53427 25.4874 6.43504 25.505C6.4089 25.5082 6.38406 25.5181 6.36299 25.5339C6.34193 25.5497 6.32539 25.5708 6.31505 25.595C6.30358 25.6183 6.29761 25.644 6.29761 25.67C6.29761 25.696 6.30358 25.7217 6.31505 25.745C6.36569 25.8343 6.42978 25.9152 6.50505 25.985C6.68453 26.1327 6.87508 26.2665 7.07504 26.385C7.27322 26.4989 7.48063 26.5959 7.69505 26.675C7.79373 26.698 7.89638 26.698 7.99506 26.675C8.02219 26.6727 8.04836 26.6638 8.07137 26.6493C8.09437 26.6347 8.11354 26.6148 8.12726 26.5913C8.14098 26.5678 8.14885 26.5413 8.15021 26.5141C8.15156 26.4869 8.14637 26.4598 8.13506 26.435C8.08829 26.3459 8.02751 26.2649 7.95505 26.195L7.93504 26.185Z" fill="url(#paint9_linear_117_1832)"/>
<path style="mix-blend-mode:screen" fill-rule="evenodd" clip-rule="evenodd" d="M6.285 25.765C6.26596 25.7666 6.24795 25.7743 6.23356 25.7869C6.21918 25.7995 6.20917 25.8163 6.205 25.835C6.055 26.225 7.285 26.895 7.645 26.685C7.17151 26.5257 6.74527 26.2507 6.405 25.885C6.405 25.885 6.315 25.765 6.285 25.765Z" fill="url(#paint10_radial_117_1832)"/>
<path fill-rule="evenodd" clip-rule="evenodd" d="M8.55518 21.465C8.77514 21.7983 9.0712 22.0746 9.41893 22.2711C9.76666 22.4676 10.1561 22.5786 10.5552 22.595C10.6352 22.595 10.6352 22.515 10.6552 22.465C10.8131 22.1333 11.0041 21.8184 11.2252 21.525C10.8142 21.5472 10.408 21.4272 10.0752 21.185C9.58516 20.905 9.23517 20.565 9.20517 20.355C9.06304 20.7055 8.88545 21.0406 8.67517 21.355C8.67517 21.355 8.59518 21.425 8.60518 21.505L8.55518 21.465Z" fill="url(#paint11_linear_117_1832)"/>
<path fill-rule="evenodd" clip-rule="evenodd" d="M7.98514 22.555C7.98514 22.745 8.33514 23.065 8.79514 23.335C9.11164 23.5544 9.49018 23.6666 9.87514 23.655C9.95514 23.655 9.95515 23.565 9.97515 23.525C10.124 23.2021 10.3085 22.8969 10.5252 22.615C10.1254 22.6333 9.7311 22.5171 9.40514 22.285C8.92514 22.005 8.58515 21.675 8.55515 21.475C8.41574 21.8008 8.24492 22.1123 8.04514 22.405C8.04514 22.405 7.96514 22.475 7.98514 22.555Z" fill="url(#paint12_linear_117_1832)"/>
<path fill-rule="evenodd" clip-rule="evenodd" d="M7.41501 23.555C7.41501 23.735 7.765 24.045 8.215 24.305C8.50413 24.5175 8.85633 24.6267 9.215 24.615C9.285 24.615 9.28501 24.535 9.30501 24.495C9.4529 24.18 9.63391 23.8816 9.845 23.605C9.45629 23.6217 9.07298 23.5092 8.75501 23.285C8.29501 23.015 7.965 22.695 7.935 22.495C7.79677 22.8131 7.62939 23.1177 7.435 23.405C7.435 23.405 7.365 23.465 7.375 23.545L7.41501 23.555Z" fill="url(#paint13_linear_117_1832)"/>
<path fill-rule="evenodd" clip-rule="evenodd" d="M6.875 24.555C6.875 24.745 7.215 25.045 7.645 25.295C7.93832 25.498 8.28836 25.603 8.645 25.595C8.715 25.595 8.70501 25.515 8.72501 25.475C8.86935 25.1696 9.0471 24.8812 9.255 24.615C8.89634 24.6267 8.54414 24.5175 8.255 24.305C7.805 24.045 7.485 23.735 7.455 23.545C7.32732 23.8548 7.16638 24.1499 6.97501 24.425C6.97501 24.425 6.90501 24.485 6.91501 24.555H6.875Z" fill="url(#paint14_linear_117_1832)"/>
<path fill-rule="evenodd" clip-rule="evenodd" d="M6.34497 25.555C6.34497 25.735 6.67497 26.025 7.09497 26.265C7.38561 26.4726 7.73835 26.5749 8.09497 26.555C8.16497 26.555 8.16497 26.485 8.18497 26.435C8.32689 26.1442 8.49421 25.8664 8.68497 25.605C8.32842 25.6124 7.97858 25.5074 7.68497 25.305C7.25497 25.055 6.94498 24.745 6.91498 24.565C6.78471 24.8621 6.62738 25.1467 6.44498 25.415C6.44498 25.415 6.37498 25.475 6.38498 25.545L6.34497 25.555Z" fill="url(#paint15_linear_117_1832)"/>
<path style="mix-blend-mode:multiply" opacity="0.25" fill-rule="evenodd" clip-rule="evenodd" d="M8.20514 22.485C8.38157 22.2288 8.53548 21.9578 8.66515 21.675C8.61263 21.6107 8.57506 21.5356 8.55515 21.455C8.41574 21.7808 8.24492 22.0923 8.04514 22.385C8.04514 22.385 7.96514 22.455 7.98514 22.535C8.00514 22.615 8.33514 23.045 8.79514 23.315H8.84514C8.44514 23.075 8.16515 22.785 8.14515 22.605C8.12515 22.425 8.14514 22.505 8.20514 22.465V22.485Z" fill="url(#paint16_linear_117_1832)"/>
<path style="mix-blend-mode:multiply" opacity="0.25" fill-rule="evenodd" clip-rule="evenodd" d="M7.52501 23.775C7.47296 23.7142 7.43535 23.6424 7.41501 23.565C7.28733 23.8748 7.12637 24.1699 6.935 24.445C6.935 24.445 6.865 24.505 6.875 24.575C6.885 24.645 7.21501 25.065 7.64501 25.315C7.27501 25.095 7.01501 24.825 6.99501 24.645C6.97501 24.465 6.99501 24.555 7.05501 24.515C7.21545 24.2717 7.35911 24.0178 7.485 23.755L7.52501 23.775Z" fill="url(#paint17_linear_117_1832)"/>
<path style="mix-blend-mode:multiply" opacity="0.25" fill-rule="evenodd" clip-rule="evenodd" d="M9.15506 20.345C9.01293 20.6955 8.83534 21.0306 8.62506 21.345C8.62506 21.345 8.54506 21.415 8.55506 21.495C8.73914 21.8506 9.03897 22.1328 9.40506 22.295C8.99506 22.055 8.70505 21.755 8.68505 21.565C8.66505 21.375 8.68507 21.465 8.74507 21.415C8.94905 21.1441 9.12969 20.8564 9.28506 20.555C9.23254 20.4907 9.19497 20.4156 9.17506 20.335L9.15506 20.345Z" fill="url(#paint18_linear_117_1832)"/>
<path style="mix-blend-mode:multiply" opacity="0.25" fill-rule="evenodd" clip-rule="evenodd" d="M8.08504 22.735C8.03139 22.6753 7.99357 22.6031 7.97504 22.525C7.83681 22.8431 7.66943 23.1477 7.47504 23.435C7.47504 23.435 7.40504 23.495 7.41504 23.575C7.42504 23.655 7.76503 24.065 8.21503 24.325C7.82503 24.085 7.55504 23.805 7.53504 23.635C7.51504 23.465 7.53503 23.535 7.59503 23.495C7.76601 23.2442 7.9165 22.98 8.04503 22.705L8.08504 22.735Z" fill="url(#paint19_linear_117_1832)"/>
<path style="mix-blend-mode:multiply" opacity="0.25" fill-rule="evenodd" clip-rule="evenodd" d="M6.97498 24.775C6.92418 24.7186 6.88962 24.6495 6.87497 24.575C6.7447 24.8721 6.58737 25.1567 6.40497 25.425C6.40497 25.425 6.33497 25.485 6.34497 25.555C6.35497 25.625 6.67497 26.025 7.09497 26.265C6.73497 26.055 6.48497 25.785 6.46497 25.625C6.44497 25.465 6.46498 25.535 6.52498 25.495C6.67613 25.2566 6.81303 25.0095 6.93497 24.755L6.97498 24.775Z" fill="url(#paint20_linear_117_1832)"/>
<path style="mix-blend-mode:multiply" opacity="0.35" fill-rule="evenodd" clip-rule="evenodd" d="M10.1552 22.385C10.0086 22.4126 9.85806 22.4108 9.71217 22.38C9.56629 22.3491 9.42797 22.2896 9.30518 22.205L9.40517 22.265C9.7277 22.4963 10.1186 22.6126 10.5152 22.595C10.5952 22.595 10.5952 22.515 10.6152 22.465C10.7731 22.1333 10.9641 21.8184 11.1852 21.525C11.0286 21.5717 10.8618 21.5717 10.7052 21.525C10.5427 21.7723 10.3958 22.0295 10.2652 22.295C10.2652 22.295 10.2652 22.395 10.1652 22.425L10.1552 22.385Z" fill="url(#paint21_linear_117_1832)"/>
<path style="mix-blend-mode:multiply" opacity="0.35" fill-rule="evenodd" clip-rule="evenodd" d="M10.0448 22.555C9.86481 22.825 9.69482 23.145 9.61482 23.295C9.53482 23.445 9.61483 23.395 9.52483 23.425C9.23656 23.4803 8.93813 23.4192 8.69482 23.255L8.79482 23.315C9.11131 23.5345 9.48985 23.6466 9.87482 23.635C9.95482 23.635 9.95482 23.545 9.97482 23.505C10.1237 23.1821 10.3082 22.8769 10.5248 22.595C10.3682 22.6417 10.2014 22.6417 10.0448 22.595V22.555Z" fill="url(#paint22_linear_117_1832)"/>
<path style="mix-blend-mode:multiply" opacity="0.35" fill-rule="evenodd" clip-rule="evenodd" d="M9.35501 24.555C9.5029 24.24 9.68391 23.9416 9.895 23.665C9.74153 23.7097 9.57848 23.7097 9.425 23.665C9.2715 23.8985 9.1345 24.1424 9.015 24.395C9.015 24.395 9.015 24.485 8.925 24.515C8.64635 24.5665 8.35863 24.5053 8.125 24.345L8.22501 24.405C8.51414 24.6175 8.86634 24.7267 9.22501 24.715C9.29501 24.715 9.295 24.635 9.315 24.595L9.35501 24.555Z" fill="url(#paint23_linear_117_1832)"/>
<path style="mix-blend-mode:multiply" opacity="0.35" fill-rule="evenodd" clip-rule="evenodd" d="M8.80493 24.555C8.65536 24.7787 8.52168 25.0126 8.40492 25.255C8.40492 25.255 8.40493 25.345 8.31493 25.375C8.18243 25.4017 8.04589 25.4014 7.91354 25.3739C7.7812 25.3464 7.65579 25.2923 7.54492 25.215L7.64493 25.275C7.93824 25.478 8.28829 25.583 8.64493 25.575C8.71493 25.575 8.70493 25.495 8.72493 25.455C8.86927 25.1496 9.04702 24.8612 9.25493 24.595C9.10508 24.6412 8.94477 24.6412 8.79492 24.595L8.80493 24.555Z" fill="url(#paint24_linear_117_1832)"/>
<path style="mix-blend-mode:multiply" opacity="0.35" fill-rule="evenodd" clip-rule="evenodd" d="M8.16512 26.435C8.30704 26.1441 8.47435 25.8664 8.66512 25.605C8.51771 25.6444 8.36251 25.6444 8.2151 25.605C8.0551 25.855 7.8951 26.145 7.8251 26.285C7.7551 26.425 7.82512 26.365 7.74512 26.395C7.48512 26.4463 7.21536 26.3924 6.99512 26.245L7.09511 26.305C7.38575 26.5126 7.73849 26.6149 8.09511 26.595C8.16511 26.595 8.1651 26.525 8.1851 26.475L8.16512 26.435Z" fill="url(#paint25_linear_117_1832)"/>
<path fill-rule="evenodd" clip-rule="evenodd" d="M10.3948 20.555C10.9748 20.885 11.3948 21.295 11.2548 21.475C11.1148 21.655 10.5948 21.475 10.0248 21.195C9.45483 20.915 9.02483 20.455 9.16483 20.275C9.30483 20.095 9.82483 20.275 10.3948 20.555Z" fill="#808080"/>
<path style="mix-blend-mode:screen" opacity="0.5" fill-rule="evenodd" clip-rule="evenodd" d="M9.44508 22.045C9.53504 21.746 9.70851 21.4788 9.94508 21.275C9.99792 21.2648 10.0522 21.2648 10.1051 21.275L10.0251 21.225C9.77055 21.0828 9.53811 20.9043 9.33508 20.695C9.34423 20.7479 9.34423 20.8021 9.33508 20.855C9.26581 21.204 9.09944 21.5264 8.85509 21.785C8.83139 21.7952 8.80586 21.8004 8.78008 21.8004C8.75429 21.8004 8.72877 21.7952 8.70508 21.785C8.90003 21.9824 9.1223 22.1508 9.36508 22.285C9.3343 22.2045 9.3343 22.1155 9.36508 22.035L9.44508 22.045Z" fill="url(#paint26_linear_117_1832)"/>
<path style="mix-blend-mode:screen" opacity="0.5" fill-rule="evenodd" clip-rule="evenodd" d="M9.40497 22.265C9.1535 22.1268 8.92427 21.9515 8.72498 21.745C8.73398 21.7946 8.73398 21.8454 8.72498 21.895C8.66634 22.2317 8.50577 22.5424 8.26497 22.785C8.24102 22.8001 8.21328 22.8081 8.18497 22.8081C8.15665 22.8081 8.12893 22.8001 8.10498 22.785C8.29601 22.9854 8.51492 23.1571 8.75497 23.295H8.82497C8.80653 23.2524 8.79703 23.2064 8.79703 23.16C8.79703 23.1136 8.80653 23.0676 8.82497 23.025C8.91217 22.7409 9.07871 22.4876 9.30498 22.295C9.35155 22.2694 9.40236 22.2525 9.45497 22.245L9.40497 22.265Z" fill="url(#paint27_linear_117_1832)"/>
<path style="mix-blend-mode:screen" opacity="0.5" fill-rule="evenodd" clip-rule="evenodd" d="M8.79515 23.315C8.54412 23.1765 8.31774 22.9974 8.12515 22.785C8.13405 22.8447 8.13405 22.9053 8.12515 22.965C8.06137 23.2891 7.90507 23.5878 7.67516 23.825C7.65387 23.8373 7.62974 23.8438 7.60516 23.8438C7.58059 23.8438 7.55644 23.8373 7.53516 23.825C7.72053 24.0122 7.93288 24.1706 8.16516 24.295C8.13438 24.2145 8.13438 24.1255 8.16516 24.045C8.25149 23.7686 8.41447 23.5224 8.63516 23.335C8.68764 23.3215 8.74268 23.3215 8.79515 23.335H8.72516L8.79515 23.315Z" fill="url(#paint28_linear_117_1832)"/>
<path style="mix-blend-mode:screen" opacity="0.5" fill-rule="evenodd" clip-rule="evenodd" d="M8.21513 24.325C7.97357 24.1935 7.75422 24.0247 7.56514 23.825C7.57457 23.8712 7.57457 23.9188 7.56514 23.965C7.50755 24.2891 7.35432 24.5886 7.12514 24.825C7.10775 24.8324 7.08905 24.8362 7.07014 24.8362C7.05124 24.8362 7.03252 24.8324 7.01514 24.825C7.19166 25.0067 7.3938 25.1617 7.61514 25.285C7.60029 25.2502 7.59264 25.2128 7.59264 25.175C7.59264 25.1372 7.60029 25.0998 7.61514 25.065C7.6982 24.7896 7.8577 24.5434 8.07513 24.355C8.11804 24.3464 8.16223 24.3464 8.20514 24.355L8.21513 24.325Z" fill="url(#paint29_linear_117_1832)"/>
<path style="mix-blend-mode:screen" opacity="0.5" fill-rule="evenodd" clip-rule="evenodd" d="M7.6451 25.315C7.42421 25.191 7.22217 25.0361 7.04509 24.855C7.04974 24.8882 7.04974 24.9218 7.04509 24.955C6.9825 25.2686 6.82957 25.5571 6.6051 25.785C6.58505 25.7955 6.56274 25.801 6.5401 25.801C6.51746 25.801 6.49515 25.7955 6.4751 25.785C6.6537 25.9644 6.85548 26.1191 7.07509 26.245H7.12509C7.09497 26.1678 7.09497 26.0821 7.12509 26.005C7.20727 25.7373 7.36323 25.4981 7.57509 25.315C7.61103 25.3047 7.64914 25.3047 7.68509 25.315H7.6451Z" fill="url(#paint30_linear_117_1832)"/>
<path fill-rule="evenodd" clip-rule="evenodd" d="M9.97504 21.275C10.2844 21.5261 10.6669 21.6699 11.065 21.685L11.185 21.525C10.7703 21.553 10.359 21.4325 10.025 21.185C9.52504 20.905 9.17503 20.555 9.15503 20.355C9.15503 20.575 9.52504 20.935 9.99504 21.245L9.97504 21.275Z" fill="#666666"/>
<g style="mix-blend-mode:multiply" opacity="0.35">
<path fill-rule="evenodd" clip-rule="evenodd" d="M10.5252 22.555C10.1255 22.5733 9.73112 22.4571 9.40517 22.225C8.92517 21.945 8.58518 21.615 8.55518 21.415C8.55518 21.625 8.90518 21.975 9.35518 22.275C9.66024 22.5174 10.0357 22.6542 10.4252 22.665C10.4252 22.665 10.4952 22.555 10.5352 22.515L10.5252 22.555Z" fill="#4A2121"/>
</g>
<g style="mix-blend-mode:multiply" opacity="0.35">
<path fill-rule="evenodd" clip-rule="evenodd" d="M9.8851 23.635C9.49639 23.6517 9.11306 23.5392 8.79509 23.315C8.33509 23.045 8.0051 22.725 7.9751 22.525C8.13702 22.8805 8.41582 23.1699 8.76509 23.345C9.05059 23.5729 9.40026 23.7058 9.76509 23.725C9.7993 23.6764 9.83602 23.6297 9.87509 23.585L9.8851 23.635Z" fill="#4A2121"/>
</g>
<g style="mix-blend-mode:multiply" opacity="0.35">
<path fill-rule="evenodd" clip-rule="evenodd" d="M9.28487 24.635C8.9262 24.6467 8.574 24.5375 8.28487 24.325C7.83487 24.065 7.51486 23.755 7.48486 23.565C7.48486 23.755 7.81487 24.085 8.24487 24.365C8.52651 24.5983 8.87919 24.7288 9.24487 24.735C9.27593 24.6842 9.31285 24.6372 9.35487 24.595L9.28487 24.635Z" fill="#4A2121"/>
</g>
<g style="mix-blend-mode:multiply" opacity="0.35">
<path fill-rule="evenodd" clip-rule="evenodd" d="M7.645 25.315C7.215 25.065 6.905 24.755 6.875 24.575C7.03079 24.9082 7.29045 25.1819 7.61501 25.355C7.90024 25.5807 8.25136 25.7071 8.61501 25.715L8.72501 25.565C8.36846 25.5724 8.01862 25.4674 7.72501 25.265L7.645 25.315Z" fill="#4A2121"/>
</g>
<path fill-rule="evenodd" clip-rule="evenodd" d="M10.065 21.115C9.71794 20.6289 9.25812 20.2342 8.72496 19.965C8.19964 19.677 7.7925 19.2132 7.57495 18.655L8.02496 17.785C8.22977 17.7458 8.44015 17.7458 8.64496 17.785C9.06713 18.7289 9.76414 19.5235 10.645 20.065C11.5577 20.5735 12.6068 20.7834 13.645 20.665C13.7832 20.8206 13.8916 21.0002 13.965 21.195L13.435 22.015C12.8439 22.1065 12.2395 21.9899 11.725 21.685C11.2308 21.3504 10.6595 21.1473 10.065 21.095V21.115Z" fill="url(#paint31_linear_117_1832)"/>
<path fill-rule="evenodd" clip-rule="evenodd" d="M9.85509 21.475C9.44223 20.9272 8.90832 20.4823 8.29507 20.175C7.69975 19.84 7.22945 19.3206 6.95508 18.695C7.26715 18.3428 7.62738 18.0365 8.02509 17.785C8.29298 18.289 8.62952 18.7535 9.02509 19.165C9.49995 19.5915 10.0158 19.97 10.5651 20.295C11.123 20.6128 11.713 20.8709 12.3251 21.065C12.8723 21.1911 13.4342 21.2416 13.9951 21.215C13.9795 21.6847 13.8953 22.1496 13.7451 22.595C13.05 22.6883 12.3439 22.5401 11.7451 22.175C11.1696 21.8002 10.5165 21.5609 9.83508 21.475H9.85509Z" fill="url(#paint32_linear_117_1832)"/>
<path fill-rule="evenodd" clip-rule="evenodd" d="M9.85498 21.475C10.5364 21.5608 11.1894 21.8002 11.765 22.175C12.3638 22.54 13.0699 22.6883 13.765 22.595C13.9151 22.1496 13.9994 21.6847 14.015 21.215C13.4541 21.2416 12.8922 21.1911 12.345 21.065C11.7329 20.8709 11.1429 20.6128 10.585 20.295L9.90497 21.475H9.85498Z" fill="url(#paint33_linear_117_1832)"/>
<path style="mix-blend-mode:screen" fill-rule="evenodd" clip-rule="evenodd" d="M7.28488 18.335C7.35104 18.2793 7.42781 18.2376 7.51054 18.2124C7.59328 18.1871 7.68028 18.179 7.76627 18.1883C7.85225 18.1977 7.93545 18.2243 8.01083 18.2667C8.08622 18.3091 8.15223 18.3664 8.20488 18.435C8.53594 18.9425 8.91792 19.415 9.34488 19.845C9.53488 19.995 9.75489 20.085 9.94489 20.225C10.0646 20.3013 10.1501 20.4209 10.1837 20.5588C10.2172 20.6967 10.1962 20.8423 10.1249 20.965L10.5049 20.295C9.95559 19.97 9.43974 19.5915 8.96487 19.165C8.56931 18.7535 8.23277 18.289 7.96487 17.785C7.70831 17.9411 7.47015 18.1256 7.25488 18.335H7.28488Z" fill="url(#paint34_radial_117_1832)"/>
<path style="mix-blend-mode:multiply" opacity="0.3" fill-rule="evenodd" clip-rule="evenodd" d="M10.765 21.435C10.645 21.375 10.515 21.325 10.505 21.215C10.505 20.705 11.245 20.815 11.505 20.875L11.885 20.975C11.4134 20.7952 10.9555 20.5813 10.515 20.335L10.135 21.005L10.045 21.155L9.83496 21.515C10.5164 21.6009 11.1694 21.8402 11.745 22.215C11.9578 22.337 12.1822 22.4375 12.415 22.515C11.755 22.175 11.315 21.695 10.745 21.515L10.765 21.435Z" fill="url(#paint35_linear_117_1832)"/>
<path style="mix-blend-mode:multiply" opacity="0.5" fill-rule="evenodd" clip-rule="evenodd" d="M8.3849 18.115C8.3849 17.955 8.64489 18.015 8.73489 18.115L8.84489 18.235C8.77489 18.105 8.7049 17.965 8.6449 17.835C8.44009 17.7958 8.22971 17.7958 8.0249 17.835C8.2928 18.339 8.62934 18.8035 9.0249 19.215C9.1989 19.3792 9.38255 19.5328 9.57489 19.675C9.14489 19.315 8.4049 18.555 8.4149 18.165L8.3849 18.115Z" fill="url(#paint36_linear_117_1832)"/>
<path style="mix-blend-mode:screen" fill-rule="evenodd" clip-rule="evenodd" d="M13.505 21.065C13.635 20.985 13.455 20.795 13.355 20.755H13.195C13.3448 20.7649 13.4952 20.7649 13.645 20.755C13.7832 20.9106 13.8917 21.0902 13.965 21.285C13.4041 21.3116 12.8422 21.2611 12.295 21.135C12.0624 21.0686 11.8352 20.985 11.615 20.885C12.145 21.075 13.165 21.345 13.505 21.135V21.065Z" fill="url(#paint37_radial_117_1832)"/>
<path fill-rule="evenodd" clip-rule="evenodd" d="M9.19482 19.075L11.9948 14.315H12.2848L12.2248 13.885L16.6948 6.275L17.1748 6.605L16.9348 5.885L17.0148 5.745C19.0748 2.235 20.5048 0.745002 22.0148 0.315002C22.4448 1.855 21.8448 3.855 19.8348 7.395L16.9948 12.395L16.7148 12.265L16.8448 12.655L12.2848 20.845C11.7149 20.6618 11.1654 20.4205 10.6448 20.125C10.1358 19.8356 9.65382 19.5009 9.20482 19.125L9.19482 19.075Z" fill="url(#paint38_linear_117_1832)"/>
<path fill-rule="evenodd" clip-rule="evenodd" d="M22.055 0.345001L20.905 2.345V2.715H20.705L10.625 20.165C11.1456 20.4605 11.6951 20.7018 12.265 20.885L16.875 12.745L16.745 12.355L17.025 12.485L19.865 7.485C21.865 3.945 22.475 1.945 22.045 0.404999L22.055 0.345001Z" fill="url(#paint39_linear_117_1832)"/>
<path style="mix-blend-mode:screen" opacity="0.5" fill-rule="evenodd" clip-rule="evenodd" d="M9.47482 19.325L13.3048 12.815L17.0048 6.515L16.6948 6.305L12.2248 13.915L12.2848 14.345H11.9948L9.19482 19.105L9.47482 19.355V19.325ZM17.0948 6.385L17.3348 5.965C17.7848 5.195 18.2548 4.445 18.7648 3.715C19.1409 3.16327 19.5552 2.63863 20.0048 2.145C20.4916 1.58126 21.0957 1.13075 21.7748 0.824997L22.0548 0.345001C20.5048 0.745001 19.0548 2.265 17.0548 5.775L16.9748 5.915L17.1348 6.385H17.0948Z" fill="url(#paint40_radial_117_1832)"/>
<path style="mix-blend-mode:screen" opacity="0.3" fill-rule="evenodd" clip-rule="evenodd" d="M11.915 20.725L15.635 14.155L19.555 7.245C19.985 6.475 20.415 5.685 20.785 4.885C21.0728 4.28217 21.3201 3.66079 21.525 3.025C21.7675 2.31861 21.8528 1.56779 21.775 0.824997L22.055 0.345001C22.485 1.885 21.885 3.885 19.875 7.425L17.035 12.425L16.755 12.295L16.885 12.685L12.285 20.845L11.925 20.725H11.915Z" fill="url(#paint41_linear_117_1832)"/>
<path fill-rule="evenodd" clip-rule="evenodd" d="M20.385 3.94497C20.4314 3.86408 20.4438 3.76807 20.4194 3.67805C20.395 3.58803 20.3358 3.51139 20.255 3.46498C20.1741 3.41857 20.0781 3.40618 19.988 3.43056C19.898 3.45494 19.8214 3.51408 19.775 3.59498L16.845 8.67498L16.775 9.16498L16.515 9.24498L10.335 19.945L10.635 20.125L10.945 20.295L20.385 3.94497Z" fill="url(#paint42_linear_117_1832)"/>
<path style="mix-blend-mode:screen" opacity="0.5" fill-rule="evenodd" clip-rule="evenodd" d="M20.135 3.66498L10.635 20.125L10.945 20.295L14.605 13.955H14.885V13.405L20.345 3.95498C20.3892 3.87361 20.4004 3.77832 20.3762 3.68893C20.352 3.59953 20.2942 3.5229 20.215 3.47498H20.135C20.1645 3.54881 20.1645 3.63115 20.135 3.70498V3.66498Z" fill="url(#paint43_linear_117_1832)"/>
<defs>
<linearGradient id="paint0_linear_117_1832" x1="13.005" y1="3.86499" x2="13.005" y2="29.685" gradientUnits="userSpaceOnUse">
<stop stop-color="#64C6C9"/>
<stop offset="1" stop-color="#42688A"/>
<stop offset="1" stop-color="#42688A"/>
</linearGradient>
<linearGradient id="paint1_linear_117_1832" x1="3476.74" y1="2752.14" x2="3476.74" y2="2284.93" gradientUnits="userSpaceOnUse">
<stop stop-color="#84C4FF"/>
<stop offset="1" stop-color="#0C355C"/>
</linearGradient>
<radialGradient id="paint2_radial_117_1832" cx="0" cy="0" r="1" gradientUnits="userSpaceOnUse" gradientTransform="translate(3008.14 1548.28) scale(184.147)">
<stop stop-color="#412D73"/>
<stop offset="1" stop-color="#25094F"/>
</radialGradient>
<linearGradient id="paint3_linear_117_1832" x1="4149.62" y1="2474.24" x2="4149.62" y2="2110.19" gradientUnits="userSpaceOnUse">
<stop stop-color="#074675"/>
<stop offset="1" stop-color="white"/>
</linearGradient>
<radialGradient id="paint4_radial_117_1832" cx="0" cy="0" r="1" gradientUnits="userSpaceOnUse" gradientTransform="translate(6.8938 26.7841) rotate(15.005) scale(1.70721)">
<stop stop-color="#A15F00"/>
<stop offset="0.33" stop-color="#8F4A04"/>
<stop offset="0.58" stop-color="#853F06"/>
<stop offset="0.69" stop-color="#7F3C05"/>
<stop offset="0.84" stop-color="#6E3403"/>
<stop offset="1" stop-color="#522800"/>
</radialGradient>
<radialGradient id="paint5_radial_117_1832" cx="0" cy="0" r="1" gradientUnits="userSpaceOnUse" gradientTransform="translate(355.825 -198.478) rotate(15.005) scale(3.91936 3.93984)">
<stop stop-color="#B18654"/>
<stop offset="1" stop-color="#000505"/>
</radialGradient>
<radialGradient id="paint6_radial_117_1832" cx="0" cy="0" r="1" gradientUnits="userSpaceOnUse" gradientTransform="translate(278.952 -135.308) rotate(15.0049) scale(3.03201 3.07129)">
<stop stop-color="#B18654"/>
<stop offset="1" stop-color="#000505"/>
</radialGradient>
<radialGradient id="paint7_radial_117_1832" cx="0" cy="0" r="1" gradientUnits="userSpaceOnUse" gradientTransform="translate(303.325 -287.999) rotate(15.0049) scale(2.65548 4.42353)">
<stop stop-color="#B18654"/>
<stop offset="1" stop-color="#000505"/>
</radialGradient>
<linearGradient id="paint8_linear_117_1832" x1="330.596" y1="222.274" x2="334.132" y2="225.01" gradientUnits="userSpaceOnUse">
<stop stop-color="#855226"/>
<stop offset="0.31" stop-color="#BA7A1E"/>
<stop offset="1" stop-color="#3B2008"/>
</linearGradient>
<linearGradient id="paint9_linear_117_1832" x1="289.537" y1="174.733" x2="294.27" y2="178.959" gradientUnits="userSpaceOnUse">
<stop stop-color="white"/>
<stop offset="0.4" stop-color="#C3C7E6"/>
<stop offset="1" stop-color="#616DBE"/>
</linearGradient>
<radialGradient id="paint10_radial_117_1832" cx="0" cy="0" r="1" gradientUnits="userSpaceOnUse" gradientTransform="translate(229.823 145.811) scale(3.67512 2.42837)">
<stop stop-color="#B18654"/>
<stop offset="1" stop-color="#000505"/>
</radialGradient>
<linearGradient id="paint11_linear_117_1832" x1="8.76518" y1="21.015" x2="10.8052" y2="22.185" gradientUnits="userSpaceOnUse">
<stop stop-color="#611412"/>
<stop offset="0.31" stop-color="#8A4835"/>
<stop offset="1" stop-color="#450E0E"/>
</linearGradient>
<linearGradient id="paint12_linear_117_1832" x1="404.47" y1="286.532" x2="409.065" y2="289.633" gradientUnits="userSpaceOnUse">
<stop stop-color="#611412"/>
<stop offset="0.31" stop-color="#8A4835"/>
<stop offset="1" stop-color="#450E0E"/>
</linearGradient>
<linearGradient id="paint13_linear_117_1832" x1="391.191" y1="282.49" x2="395.52" y2="285.421" gradientUnits="userSpaceOnUse">
<stop stop-color="#611412"/>
<stop offset="0.31" stop-color="#8A4835"/>
<stop offset="1" stop-color="#450E0E"/>
</linearGradient>
<linearGradient id="paint14_linear_117_1832" x1="375.252" y1="276.999" x2="379.327" y2="279.72" gradientUnits="userSpaceOnUse">
<stop stop-color="#611412"/>
<stop offset="0.31" stop-color="#8A4835"/>
<stop offset="1" stop-color="#450E0E"/>
</linearGradient>
<linearGradient id="paint15_linear_117_1832" x1="367.289" y1="272.823" x2="371.112" y2="275.431" gradientUnits="userSpaceOnUse">
<stop stop-color="#611412"/>
<stop offset="0.31" stop-color="#8A4835"/>
<stop offset="1" stop-color="#450E0E"/>
</linearGradient>
<linearGradient id="paint16_linear_117_1832" x1="142.556" y1="247.519" x2="143.666" y2="247.819" gradientUnits="userSpaceOnUse">
<stop stop-color="#616DBE"/>
<stop offset="0.6" stop-color="#C3C7E6"/>
<stop offset="1" stop-color="white"/>
</linearGradient>
<linearGradient id="paint17_linear_117_1832" x1="126.207" y1="239.882" x2="127.143" y2="240.121" gradientUnits="userSpaceOnUse">
<stop stop-color="#616DBE"/>
<stop offset="0.6" stop-color="#C3C7E6"/>
<stop offset="1" stop-color="white"/>
</linearGradient>
<linearGradient id="paint18_linear_117_1832" x1="141.696" y1="256.436" x2="142.826" y2="256.719" gradientUnits="userSpaceOnUse">
<stop stop-color="#616DBE"/>
<stop offset="0.6" stop-color="#C3C7E6"/>
<stop offset="1" stop-color="white"/>
</linearGradient>
<linearGradient id="paint19_linear_117_1832" x1="131.828" y1="243.186" x2="132.832" y2="243.445" gradientUnits="userSpaceOnUse">
<stop stop-color="#616DBE"/>
<stop offset="0.6" stop-color="#C3C7E6"/>
<stop offset="1" stop-color="white"/>
</linearGradient>
<linearGradient id="paint20_linear_117_1832" x1="122.182" y1="235.149" x2="123.07" y2="235.38" gradientUnits="userSpaceOnUse">
<stop stop-color="#616DBE"/>
<stop offset="0.6" stop-color="#C3C7E6"/>
<stop offset="1" stop-color="white"/>
</linearGradient>
<linearGradient id="paint21_linear_117_1832" x1="305.216" y1="151.194" x2="306.609" y2="152.591" gradientUnits="userSpaceOnUse">
<stop stop-color="white"/>
<stop offset="0.4" stop-color="#C3C7E6"/>
<stop offset="1" stop-color="#616DBE"/>
</linearGradient>
<linearGradient id="paint22_linear_117_1832" x1="295.603" y1="154.469" x2="296.962" y2="155.8" gradientUnits="userSpaceOnUse">
<stop stop-color="white"/>
<stop offset="0.4" stop-color="#C3C7E6"/>
<stop offset="1" stop-color="#616DBE"/>
</linearGradient>
<linearGradient id="paint23_linear_117_1832" x1="284.582" y1="153.015" x2="285.852" y2="154.258" gradientUnits="userSpaceOnUse">
<stop stop-color="white"/>
<stop offset="0.4" stop-color="#C3C7E6"/>
<stop offset="1" stop-color="#616DBE"/>
</linearGradient>
<linearGradient id="paint24_linear_117_1832" x1="273.639" y1="151.18" x2="274.857" y2="152.348" gradientUnits="userSpaceOnUse">
<stop stop-color="white"/>
<stop offset="0.4" stop-color="#C3C7E6"/>
<stop offset="1" stop-color="#616DBE"/>
</linearGradient>
<linearGradient id="paint25_linear_117_1832" x1="265.928" y1="149.719" x2="267.055" y2="150.829" gradientUnits="userSpaceOnUse">
<stop stop-color="white"/>
<stop offset="0.4" stop-color="#C3C7E6"/>
<stop offset="1" stop-color="#616DBE"/>
</linearGradient>
<linearGradient id="paint26_linear_117_1832" x1="8.99508" y1="21.245" x2="9.82508" y2="21.725" gradientUnits="userSpaceOnUse">
<stop stop-color="#AB665D"/>
<stop offset="1" stop-color="#2B2321"/>
</linearGradient>
<linearGradient id="paint27_linear_117_1832" x1="218.866" y1="210.472" x2="220.001" y2="211.049" gradientUnits="userSpaceOnUse">
<stop stop-color="#AB665D"/>
<stop offset="1" stop-color="#2B2321"/>
</linearGradient>
<linearGradient id="paint28_linear_117_1832" x1="203.49" y1="208.197" x2="204.58" y2="208.72" gradientUnits="userSpaceOnUse">
<stop stop-color="#AB665D"/>
<stop offset="1" stop-color="#2B2321"/>
</linearGradient>
<linearGradient id="paint29_linear_117_1832" x1="192.979" y1="204.588" x2="193.957" y2="205.05" gradientUnits="userSpaceOnUse">
<stop stop-color="#AB665D"/>
<stop offset="1" stop-color="#2B2321"/>
</linearGradient>
<linearGradient id="paint30_linear_117_1832" x1="193.37" y1="198.341" x2="194.273" y2="198.801" gradientUnits="userSpaceOnUse">
<stop stop-color="#AB665D"/>
<stop offset="1" stop-color="#2B2321"/>
</linearGradient>
<linearGradient id="paint31_linear_117_1832" x1="7.63495" y1="18.465" x2="13.5749" y2="21.895" gradientUnits="userSpaceOnUse">
<stop stop-color="#6E3B0F"/>
<stop offset="1" stop-color="#BA7A1E"/>
</linearGradient>
<linearGradient id="paint32_linear_117_1832" x1="7.04508" y1="18.545" x2="10.5851" y2="20.585" gradientUnits="userSpaceOnUse">
<stop stop-color="#A14D03"/>
<stop offset="1" stop-color="#E8A849"/>
</linearGradient>
<linearGradient id="paint33_linear_117_1832" x1="667.716" y1="299.422" x2="676.798" y2="308.788" gradientUnits="userSpaceOnUse">
<stop stop-color="#6E3B0F"/>
<stop offset="1" stop-color="#BA7A1E"/>
</linearGradient>
<radialGradient id="paint34_radial_117_1832" cx="0" cy="0" r="1" gradientUnits="userSpaceOnUse" gradientTransform="translate(521.502 399.989) scale(13.52 13.2288)">
<stop stop-color="#B18654"/>
<stop offset="1" stop-color="#000505"/>
</radialGradient>
<linearGradient id="paint35_linear_117_1832" x1="417.32" y1="282.545" x2="422.883" y2="286.323" gradientUnits="userSpaceOnUse">
<stop stop-color="#616DBE"/>
<stop offset="0.6" stop-color="#C3C7E6"/>
<stop offset="1" stop-color="white"/>
</linearGradient>
<linearGradient id="paint36_linear_117_1832" x1="249.218" y1="237.384" x2="252.48" y2="238.945" gradientUnits="userSpaceOnUse">
<stop stop-color="#616DBE"/>
<stop offset="0.6" stop-color="#C3C7E6"/>
<stop offset="1" stop-color="white"/>
</linearGradient>
<radialGradient id="paint37_radial_117_1832" cx="0" cy="0" r="1" gradientUnits="userSpaceOnUse" gradientTransform="translate(392.126 85.795) scale(7.09697 1.62144)">
<stop stop-color="#B18654"/>
<stop offset="1" stop-color="#000505"/>
</radialGradient>
<linearGradient id="paint38_linear_117_1832" x1="14.8048" y1="9.345" x2="16.3948" y2="10.265" gradientUnits="userSpaceOnUse">
<stop stop-color="#7388AB"/>
<stop offset="1" stop-color="#DCFBFF"/>
</linearGradient>
<linearGradient id="paint39_linear_117_1832" x1="16.345" y1="10.235" x2="17.885" y2="11.125" gradientUnits="userSpaceOnUse">
<stop stop-color="#89A5C4"/>
<stop offset="1" stop-color="#575E91"/>
</linearGradient>
<radialGradient id="paint40_radial_117_1832" cx="0" cy="0" r="1" gradientUnits="userSpaceOnUse" gradientTransform="translate(2014.07 1954.38) scale(266.974 394.648)">
<stop stop-color="#F0FFFF"/>
<stop offset="0.11" stop-color="#ECFAFB"/>
<stop offset="0.24" stop-color="#DFEDEF"/>
<stop offset="0.37" stop-color="#C9D6DB"/>
<stop offset="0.51" stop-color="#ABB7BE"/>
<stop offset="0.65" stop-color="#848E9A"/>
<stop offset="0.79" stop-color="#545C6D"/>
<stop offset="0.93" stop-color="#1D233A"/>
<stop offset="1" stop-color="#00051F"/>
</radialGradient>
<linearGradient id="paint41_linear_117_1832" x1="16.375" y1="10.185" x2="17.915" y2="11.075" gradientUnits="userSpaceOnUse">
<stop offset="0.45" stop-color="#F0FFFF"/>
<stop offset="0.51" stop-color="#ECFAFB"/>
<stop offset="0.58" stop-color="#DFEDEF"/>
<stop offset="0.66" stop-color="#C9D6DB"/>
<stop offset="0.73" stop-color="#ABB7BE"/>
<stop offset="0.81" stop-color="#848E9A"/>
<stop offset="0.88" stop-color="#545C6D"/>
<stop offset="0.96" stop-color="#1D233A"/>
<stop offset="1" stop-color="#00051F"/>
</linearGradient>
<linearGradient id="paint42_linear_117_1832" x1="15.145" y1="11.625" x2="15.745" y2="11.975" gradientUnits="userSpaceOnUse">
<stop stop-color="#545F85"/>
<stop offset="1" stop-color="#ADCAEB"/>
</linearGradient>
<linearGradient id="paint43_linear_117_1832" x1="15.375" y1="11.755" x2="15.955" y2="12.095" gradientUnits="userSpaceOnUse">
<stop/>
<stop offset="1" stop-color="#F0FFFF"/>
</linearGradient>
</defs>
</svg>
