<svg width="30" height="30" viewBox="0 0 30 30" fill="none" xmlns="http://www.w3.org/2000/svg">
<path d="M15.0001 3.08984C17.3557 3.08984 19.6583 3.78835 21.6169 5.09704C23.5755 6.40573 25.1021 8.26582 26.0035 10.4421C26.9049 12.6184 27.1408 15.0131 26.6812 17.3234C26.2217 19.6337 25.0874 21.7558 23.4217 23.4215C21.7561 25.0871 19.6339 26.2214 17.3236 26.681C15.0133 27.1405 12.6186 26.9047 10.4423 26.0032C8.26606 25.1018 6.40597 23.5753 5.09729 21.6167C3.7886 19.6581 3.09009 17.3554 3.09009 14.9998C3.09009 13.4358 3.39815 11.8871 3.99668 10.4421C4.59522 8.9971 5.4725 7.68415 6.57845 6.5782C8.81201 4.34465 11.8414 3.08984 15.0001 3.08984Z" fill="#151515" fill-opacity="0.5" stroke="url(#paint0_linear_117_1943)" stroke-width="2"/>
<path fill-rule="evenodd" clip-rule="evenodd" d="M15.0002 4.18982C17.1382 4.18982 19.2282 4.82381 21.0059 6.01163C22.7836 7.19945 24.1691 8.88774 24.9873 10.863C25.8055 12.8383 26.0196 15.0118 25.6025 17.1087C25.1854 19.2057 24.1558 21.1318 22.644 22.6436C21.1322 24.1554 19.206 25.185 17.1091 25.6021C15.0122 26.0192 12.8386 25.8051 10.8634 24.987C8.88811 24.1688 7.19982 22.7832 6.012 21.0055C4.82418 19.2278 4.19019 17.1378 4.19019 14.9998C4.19019 12.1328 5.32909 9.38326 7.35636 7.35599C9.38363 5.32872 12.1332 4.18982 15.0002 4.18982V4.18982Z" fill="url(#paint1_linear_117_1943)"/>
<path fill-rule="evenodd" clip-rule="evenodd" d="M15.0001 5.14984C16.9483 5.14984 18.8527 5.72753 20.4725 6.80986C22.0923 7.8922 23.3548 9.43056 24.1004 11.2304C24.8459 13.0303 25.0409 15.0108 24.6609 16.9215C24.2808 18.8322 23.3427 20.5873 21.9651 21.9648C20.5876 23.3424 18.8325 24.2805 16.9218 24.6606C15.0111 25.0406 13.0306 24.8456 11.2307 24.1001C9.43086 23.3545 7.8925 22.092 6.81017 20.4722C5.72784 18.8524 5.15015 16.948 5.15015 14.9998C5.15015 12.3875 6.18791 9.88207 8.03514 8.03484C9.88238 6.18761 12.3878 5.14984 15.0001 5.14984V5.14984Z" fill="url(#paint2_radial_117_1943)"/>
<path style="mix-blend-mode:multiply" opacity="0.75" fill-rule="evenodd" clip-rule="evenodd" d="M27.8001 14.6598C27.8001 18.0546 26.4515 21.3103 24.0511 23.7108C21.6506 26.1113 18.3949 27.4598 15.0001 27.4598C11.6053 27.4598 8.34959 26.1113 5.94912 23.7108C3.54866 21.3103 2.20009 18.0546 2.20009 14.6598C2.19802 12.6258 2.69961 10.6228 3.66009 8.82983C2.5902 10.7961 2.04996 13.0068 2.09241 15.2449C2.13485 17.483 2.75852 19.6716 3.90219 21.5959C5.04587 23.5202 6.67024 25.1141 8.61588 26.2211C10.5615 27.3281 12.7616 27.9101 15.0001 27.9101C17.2386 27.9101 19.4386 27.3281 21.3843 26.2211C23.3299 25.1141 24.9543 23.5202 26.098 21.5959C27.2417 19.6716 27.8653 17.483 27.9078 15.2449C27.9502 13.0068 27.41 10.7961 26.3401 8.82983C27.3006 10.6228 27.8022 12.6258 27.8001 14.6598V14.6598Z" fill="url(#paint3_linear_117_1943)"/>
<path fill-rule="evenodd" clip-rule="evenodd" d="M12.0502 15.2998C10.842 15.3813 9.6304 15.4013 8.42017 15.3598C8.37082 15.3561 8.32288 15.3416 8.2797 15.3174C8.23652 15.2933 8.19914 15.2599 8.17017 15.2198C8.40495 15.5992 8.67265 15.9573 8.97017 16.2898C9.18549 16.5779 9.43386 16.8396 9.71017 17.0698C10.1102 17.0698 10.7102 17.0698 11.2502 17.0698C11.5002 16.4698 11.7602 15.8598 12.0102 15.2898L12.0502 15.2998Z" fill="url(#paint4_radial_117_1943)"/>
<path fill-rule="evenodd" clip-rule="evenodd" d="M20.4202 4.87982C19.1702 6.87982 17.6002 9.24982 16.2402 11.2398C16.9502 11.2398 17.8802 11.1898 18.7402 11.1798C19.7402 9.64982 20.8202 8.02982 21.7402 6.59982C21.7745 6.50276 21.7745 6.39687 21.7402 6.29982C21.3499 5.66494 20.9084 5.06294 20.4202 4.49982H20.4802C20.5047 4.54421 20.5176 4.5941 20.5176 4.64482C20.5176 4.69553 20.5047 4.74542 20.4802 4.78982L20.4202 4.87982Z" fill="url(#paint5_radial_117_1943)"/>
<path fill-rule="evenodd" clip-rule="evenodd" d="M20.5901 11.7098C17.3988 15.84 13.9802 19.7894 10.3501 23.5398C9.8601 24.0398 9.0201 24.7998 8.8501 24.7098C8.9201 24.8498 9.9401 26.2198 10.1401 26.4198C10.3201 26.5098 11.1401 25.7498 11.6501 25.2398C15.2823 21.4949 18.701 17.5487 21.8901 13.4198C21.914 13.3699 21.9265 13.3152 21.9265 13.2598C21.9265 13.2044 21.914 13.1498 21.8901 13.0998C21.8901 13.0298 21.8901 13.0998 21.8901 13.0398C21.7501 12.7998 20.8901 11.6298 20.6201 11.3498C20.6491 11.4 20.6643 11.4569 20.6643 11.5148C20.6643 11.5727 20.6491 11.6297 20.6201 11.6798L20.5901 11.7098Z" fill="url(#paint6_radial_117_1943)"/>
<path style="mix-blend-mode:multiply" opacity="0.5" fill-rule="evenodd" clip-rule="evenodd" d="M20.4201 4.95982C20.7534 5.21718 21.0066 5.564 21.1501 5.95982C21.3301 7.28982 20.0501 9.03982 19.3501 10.0198C19.1982 10.297 18.9912 10.5402 18.7418 10.7346C18.4925 10.9289 18.2061 11.0702 17.9001 11.1498H18.7901C19.7901 9.61982 20.8701 7.99982 21.7901 6.56982C21.8245 6.47276 21.8245 6.36687 21.7901 6.26982C21.3825 5.64346 20.9243 5.05149 20.4201 4.49982H20.4801C20.5047 4.54421 20.5175 4.5941 20.5175 4.64482C20.5175 4.69553 20.5047 4.74542 20.4801 4.78982L20.4201 4.95982Z" fill="url(#paint7_radial_117_1943)"/>
<path style="mix-blend-mode:multiply" opacity="0.5" fill-rule="evenodd" clip-rule="evenodd" d="M21.88 13.0398C21.76 12.8398 21.1 11.9498 20.75 11.5298C21.45 12.9898 21.45 13.5298 20.49 14.7998C19.31 16.3898 18.1 17.9498 16.83 19.4698C15.56 20.9898 14.46 22.1898 13.19 23.4698C12.6112 24.041 11.9857 24.5628 11.32 25.0298C11.0325 25.2692 10.6804 25.4179 10.3084 25.4571C9.93632 25.4962 9.56101 25.4241 9.22998 25.2498C9.55998 25.6998 9.99998 26.2498 10.12 26.3898C10.3 26.4798 11.12 25.7198 11.63 25.2098C15.2682 21.4751 18.6936 17.5389 21.89 13.4198C21.9139 13.3699 21.9264 13.3152 21.9264 13.2598C21.9264 13.2044 21.9139 13.1498 21.89 13.0998C21.89 13.0298 21.89 13.0998 21.89 13.0398H21.88Z" fill="url(#paint8_radial_117_1943)"/>
<path style="mix-blend-mode:screen" fill-rule="evenodd" clip-rule="evenodd" d="M11.0601 25.8298C10.9101 25.8998 10.7301 25.9498 10.6401 25.8798C10.3099 25.5292 10.0057 25.1549 9.73011 24.7598V24.7598C9.6882 24.6707 9.66647 24.5734 9.66647 24.4748C9.66647 24.3763 9.6882 24.279 9.73011 24.1898C9.35011 24.5398 8.97011 24.8198 8.86011 24.7598C8.93011 24.8998 9.95011 26.2698 10.1501 26.4698C10.2701 26.5298 10.6701 26.2198 11.0701 25.8698L11.0601 25.8298ZM20.2201 12.2498C20.2757 12.2209 20.3374 12.2058 20.4001 12.2058C20.4628 12.2058 20.5245 12.2209 20.5801 12.2498V12.2498C20.9142 12.599 21.2248 12.9698 21.5101 13.3598C21.5474 13.4379 21.5668 13.5233 21.5668 13.6098C21.5668 13.6964 21.5474 13.7818 21.5101 13.8598L21.8901 13.3798C21.9141 13.3299 21.9265 13.2752 21.9265 13.2198C21.9265 13.1645 21.9141 13.1098 21.8901 13.0598C21.8901 12.9898 21.8901 13.0598 21.8901 12.9998C21.7501 12.7598 20.8901 11.5898 20.6201 11.3098C20.6491 11.36 20.6643 11.4169 20.6643 11.4748C20.6643 11.5328 20.6491 11.5897 20.6201 11.6398L20.2001 12.1798H20.2901L20.2201 12.2498Z" fill="url(#paint9_radial_117_1943)"/>
<path fill-rule="evenodd" clip-rule="evenodd" d="M13.6801 4.43983C15.8544 4.15848 18.0558 4.15848 20.2301 4.43983C20.283 4.44398 20.3337 4.46311 20.3762 4.49498C20.4187 4.52685 20.4513 4.57015 20.4701 4.61983C20.4946 4.66423 20.5075 4.71412 20.5075 4.76483C20.5075 4.81555 20.4946 4.86543 20.4701 4.90983C19.2201 6.90983 17.6501 9.27983 16.2901 11.2698C17.5001 11.2198 19.3501 11.1898 20.3701 11.2698C20.4273 11.272 20.4829 11.2899 20.5305 11.3217C20.5782 11.3535 20.6161 11.3978 20.6401 11.4498C20.6691 11.5 20.6843 11.5569 20.6843 11.6148C20.6843 11.6728 20.6691 11.7297 20.6401 11.7798C17.4306 15.8874 13.9953 19.8134 10.3501 23.5398C9.86009 24.0398 9.02009 24.7998 8.85009 24.7098C8.68009 24.6198 8.94009 23.7098 9.05009 23.2498C9.88333 20.5236 10.8853 17.8518 12.0501 15.2498C10.8427 15.348 9.63117 15.3847 8.42009 15.3598C8.37074 15.3561 8.3228 15.3416 8.27962 15.3175C8.23644 15.2933 8.19906 15.26 8.17009 15.2198C8.15082 15.1757 8.14087 15.128 8.14087 15.0798C8.14087 15.0317 8.15082 14.984 8.17009 14.9398C9.53546 11.3676 11.254 7.94065 13.3001 4.70983C13.3419 4.64347 13.3975 4.58683 13.463 4.54371C13.5286 4.50059 13.6026 4.47199 13.6801 4.45983V4.43983Z" fill="url(#paint10_radial_117_1943)"/>
<path style="mix-blend-mode:multiply" fill-rule="evenodd" clip-rule="evenodd" d="M19.9502 9.35983C19.0802 10.1498 17.3902 10.6698 16.9502 10.1298L16.2202 11.2098C16.9302 11.2098 17.8602 11.1598 18.7202 11.1498L19.9502 9.35983Z" fill="url(#paint11_radial_117_1943)"/>
<path style="mix-blend-mode:multiply" fill-rule="evenodd" clip-rule="evenodd" d="M10.7903 15.3598C11.2703 15.7298 10.5203 16.9098 9.55029 16.8898C9.60489 16.9567 9.67306 17.0113 9.75029 17.0498C10.1503 17.0498 10.7503 17.0498 11.2903 17.0498C11.5403 16.4498 11.8003 15.8398 12.0503 15.2698C11.7203 15.2698 11.2703 15.3198 10.7903 15.3298V15.3598Z" fill="url(#paint12_radial_117_1943)"/>
<path style="mix-blend-mode:screen" fill-rule="evenodd" clip-rule="evenodd" d="M13.7902 5.89984C15.3403 5.67664 16.9119 5.64306 18.4702 5.79984C18.6762 5.82185 18.8728 5.89773 19.0402 6.01984C19.3502 6.27984 19.1402 6.84984 18.8702 7.34984C19.4202 6.49984 19.9602 5.66984 20.4502 4.87984C20.4747 4.83544 20.4875 4.78555 20.4875 4.73484C20.4875 4.68412 20.4747 4.63423 20.4502 4.58984C20.4314 4.54016 20.3988 4.49685 20.3563 4.46498C20.3138 4.43311 20.2631 4.41398 20.2102 4.40984C18.0359 4.12848 15.8344 4.12848 13.6602 4.40984C13.5827 4.42199 13.5087 4.45059 13.4431 4.49371C13.3776 4.53683 13.322 4.59347 13.2802 4.65984C12.316 6.11865 11.4475 7.63851 10.6802 9.20984C11.3502 8.07984 12.7702 6.03984 13.7702 5.86984L13.7902 5.89984Z" fill="url(#paint13_radial_117_1943)"/>
<path style="mix-blend-mode:screen" fill-rule="evenodd" clip-rule="evenodd" d="M20.35 11.1998H19.15C19.91 11.4498 19.91 12.0098 19.3 12.8098C17.65 14.9498 13.3 20.2898 11.11 21.8098C10.02 22.6098 9.66005 22.1098 9.62005 21.3898C9.35005 22.1598 9.15005 22.7998 9.05005 23.2198C8.95005 23.6398 8.69005 24.5098 8.83005 24.6598C8.94005 24.7198 9.32004 24.4398 9.70004 24.0898C10.08 23.7398 10.15 23.6698 10.33 23.4898C13.7886 19.9171 17.0532 16.1618 20.11 12.2398C20.27 12.0498 20.42 11.8498 20.57 11.6598C20.599 11.6097 20.6143 11.5528 20.6143 11.4948C20.6143 11.4369 20.599 11.38 20.57 11.3298V11.3298C20.5411 11.2866 20.5026 11.2506 20.4575 11.2246C20.4124 11.1986 20.362 11.1833 20.31 11.1798L20.35 11.1998Z" fill="url(#paint14_radial_117_1943)"/>
<path style="mix-blend-mode:screen" fill-rule="evenodd" clip-rule="evenodd" d="M14.0201 4.61984C13.8451 4.64486 13.6814 4.72145 13.5501 4.83984C11.9084 7.14845 10.5645 9.6549 9.5501 12.2998C9.5501 12.3998 9.4901 12.5498 9.5501 12.6098C9.6101 12.6698 9.8101 12.4798 9.8601 12.3898C10.8101 10.8898 11.6601 9.32985 12.5901 7.82985C13.0601 7.06985 13.5901 6.20984 14.1601 5.49984C14.5687 5.11841 15.086 4.87374 15.6401 4.79984C16.3501 4.59984 16.0601 4.42985 15.5501 4.44985C15.0332 4.46746 14.5184 4.52429 14.0101 4.61984H14.0201Z" fill="url(#paint15_linear_117_1943)"/>
<path style="mix-blend-mode:screen" fill-rule="evenodd" clip-rule="evenodd" d="M20 11.2898C18.84 11.2898 17.68 11.2898 16.52 11.2898C15.95 11.2898 16.39 11.8898 16.79 11.9198C17.8628 11.9456 18.9328 11.8005 19.96 11.4898C20.06 11.4898 20.2 11.4198 20.21 11.3198C20.22 11.2198 20.08 11.2398 20 11.2398V11.2898Z" fill="url(#paint16_linear_117_1943)"/>
<path style="mix-blend-mode:screen" opacity="0.5" fill-rule="evenodd" clip-rule="evenodd" d="M10.0803 23.8098C10.0103 25.0798 12.9203 22.7398 13.5803 22.1398C16.064 19.9331 18.2251 17.3882 20.0003 14.5798C20.5303 13.6598 20.5903 12.4798 19.8203 12.6898C16.8769 16.4413 13.7393 20.0362 10.4203 23.4598L10.3403 23.5398L10.0703 23.8098H10.0803Z" fill="url(#paint17_radial_117_1943)"/>
<path style="mix-blend-mode:screen" fill-rule="evenodd" clip-rule="evenodd" d="M14.1301 6.89983C13.811 7.11241 13.5387 7.38807 13.3301 7.70982C12.2601 9.53982 11.3301 11.4498 10.3301 13.3198C10.1301 13.7098 9.90011 14.4498 10.6301 14.5198C11.3601 14.5898 12.3401 14.5198 13.1901 14.5198C12.2048 16.439 11.3528 18.4236 10.6401 20.4598C10.4601 21.0898 10.9701 21.0998 11.3801 20.7298C13.8185 18.457 15.9862 15.9102 17.8401 13.1398C18.1801 12.5398 17.6001 12.2598 17.1001 12.2398C16.3901 12.2398 15.6701 12.2398 14.9601 12.2398C15.7901 10.8898 16.6601 9.55983 17.4501 8.17983C17.5676 7.98072 17.6426 7.75938 17.6701 7.52982C17.6864 7.37213 17.665 7.21282 17.6076 7.06503C17.5502 6.91724 17.4586 6.7852 17.3401 6.67983C16.6487 6.34541 15.8583 6.27776 15.1201 6.48983C14.7644 6.5472 14.4241 6.67649 14.1201 6.86982L14.1301 6.89983Z" fill="url(#paint18_radial_117_1943)"/>
<defs>
<linearGradient id="paint0_linear_117_1943" x1="15.0001" y1="2.08984" x2="15.0001" y2="27.9098" gradientUnits="userSpaceOnUse">
<stop stop-color="#64C6C9"/>
<stop offset="1" stop-color="#42688A"/>
<stop offset="1" stop-color="#42688A"/>
</linearGradient>
<linearGradient id="paint1_linear_117_1943" x1="15.0002" y1="25.7998" x2="15.0002" y2="4.18982" gradientUnits="userSpaceOnUse">
<stop stop-color="#84C4FF"/>
<stop offset="1" stop-color="#0C355C"/>
</linearGradient>
<radialGradient id="paint2_radial_117_1943" cx="0" cy="0" r="1" gradientUnits="userSpaceOnUse" gradientTransform="translate(15.0001 14.9998) scale(9.85)">
<stop stop-color="#412D73"/>
<stop offset="1" stop-color="#25094F"/>
</radialGradient>
<linearGradient id="paint3_linear_117_1943" x1="15.0001" y1="27.8998" x2="15.0001" y2="8.82983" gradientUnits="userSpaceOnUse">
<stop stop-color="#074675"/>
<stop offset="1" stop-color="white"/>
</linearGradient>
<radialGradient id="paint4_radial_117_1943" cx="0" cy="0" r="1" gradientUnits="userSpaceOnUse" gradientTransform="translate(7.10017 14.1798) scale(5.72)">
<stop stop-color="#00BDFC"/>
<stop offset="1" stop-color="#0061BD"/>
</radialGradient>
<radialGradient id="paint5_radial_117_1943" cx="0" cy="0" r="1" gradientUnits="userSpaceOnUse" gradientTransform="translate(270.093 271.673) scale(77.4156 94.4274)">
<stop stop-color="#00BDFC"/>
<stop offset="1" stop-color="#0061BD"/>
</radialGradient>
<radialGradient id="paint6_radial_117_1943" cx="0" cy="0" r="1" gradientUnits="userSpaceOnUse" gradientTransform="translate(20.6801 22.4198) scale(26.32)">
<stop stop-color="#0061BD"/>
<stop offset="1" stop-color="#00BDFC"/>
</radialGradient>
<radialGradient id="paint7_radial_117_1943" cx="0" cy="0" r="1" gradientUnits="userSpaceOnUse" gradientTransform="translate(193.795 260.99) scale(26.9794 45.8185)">
<stop stop-color="white"/>
<stop offset="0.11" stop-color="#F9FAFB"/>
<stop offset="0.26" stop-color="#E9ECF1"/>
<stop offset="0.42" stop-color="#CFD5DF"/>
<stop offset="0.6" stop-color="#AAB6C6"/>
<stop offset="0.79" stop-color="#7A8DA6"/>
<stop offset="0.98" stop-color="#415B80"/>
<stop offset="1" stop-color="#3C577D"/>
</radialGradient>
<radialGradient id="paint8_radial_117_1943" cx="0" cy="0" r="1" gradientUnits="userSpaceOnUse" gradientTransform="translate(482.551 704.644) scale(186.129 217.955)">
<stop stop-color="white"/>
<stop offset="0.11" stop-color="#F9FAFB"/>
<stop offset="0.26" stop-color="#E9ECF1"/>
<stop offset="0.42" stop-color="#CFD5DF"/>
<stop offset="0.6" stop-color="#AAB6C6"/>
<stop offset="0.79" stop-color="#7A8DA6"/>
<stop offset="0.98" stop-color="#415B80"/>
<stop offset="1" stop-color="#3C577D"/>
</radialGradient>
<radialGradient id="paint9_radial_117_1943" cx="0" cy="0" r="1" gradientUnits="userSpaceOnUse" gradientTransform="translate(16.0601 19.2898) scale(9.45)">
<stop offset="0.58"/>
<stop offset="0.74" stop-color="#000202"/>
<stop offset="0.79" stop-color="#000909"/>
<stop offset="0.83" stop-color="#001414"/>
<stop offset="0.87" stop-color="#002525"/>
<stop offset="0.89" stop-color="#003B3B"/>
<stop offset="0.92" stop-color="#005757"/>
<stop offset="0.94" stop-color="#007777"/>
<stop offset="0.96" stop-color="#009D9D"/>
<stop offset="0.98" stop-color="#00C8C8"/>
<stop offset="1" stop-color="#00FFFF"/>
</radialGradient>
<radialGradient id="paint10_radial_117_1943" cx="0" cy="0" r="1" gradientUnits="userSpaceOnUse" gradientTransform="translate(12.8601 4.44984) scale(20.36)">
<stop stop-color="#00F9FC"/>
<stop offset="1" stop-color="#0081FC"/>
</radialGradient>
<radialGradient id="paint11_radial_117_1943" cx="0" cy="0" r="1" gradientUnits="userSpaceOnUse" gradientTransform="translate(178.065 86.5788) scale(20.0301 9.93449)">
<stop stop-color="white"/>
<stop offset="0.11" stop-color="#F9FAFB"/>
<stop offset="0.26" stop-color="#E9ECF1"/>
<stop offset="0.42" stop-color="#CFD5DF"/>
<stop offset="0.6" stop-color="#AAB6C6"/>
<stop offset="0.79" stop-color="#7A8DA6"/>
<stop offset="0.98" stop-color="#415B80"/>
<stop offset="1" stop-color="#3C577D"/>
</radialGradient>
<radialGradient id="paint12_radial_117_1943" cx="0" cy="0" r="1" gradientUnits="userSpaceOnUse" gradientTransform="translate(102.45 102.543) scale(12.875 9.16699)">
<stop stop-color="white"/>
<stop offset="0.11" stop-color="#F9FAFB"/>
<stop offset="0.26" stop-color="#E9ECF1"/>
<stop offset="0.42" stop-color="#CFD5DF"/>
<stop offset="0.6" stop-color="#AAB6C6"/>
<stop offset="0.79" stop-color="#7A8DA6"/>
<stop offset="0.98" stop-color="#415B80"/>
<stop offset="1" stop-color="#3C577D"/>
</radialGradient>
<radialGradient id="paint13_radial_117_1943" cx="0" cy="0" r="1" gradientUnits="userSpaceOnUse" gradientTransform="translate(18.3602 8.92984) scale(10.8)">
<stop/>
<stop offset="0.08" stop-color="#002323"/>
<stop offset="0.22" stop-color="#005C5C"/>
<stop offset="0.36" stop-color="#008E8E"/>
<stop offset="0.5" stop-color="#00B7B7"/>
<stop offset="0.64" stop-color="#00D6D6"/>
<stop offset="0.77" stop-color="#00EDED"/>
<stop offset="0.89" stop-color="#00FAFA"/>
<stop offset="1" stop-color="#00FFFF"/>
</radialGradient>
<radialGradient id="paint14_radial_117_1943" cx="0" cy="0" r="1" gradientUnits="userSpaceOnUse" gradientTransform="translate(617.525 886.155) scale(256.833 292.962)">
<stop stop-color="#00FFFF"/>
<stop offset="0.11" stop-color="#00FAFA"/>
<stop offset="0.23" stop-color="#00EDED"/>
<stop offset="0.36" stop-color="#00D6D6"/>
<stop offset="0.5" stop-color="#00B7B7"/>
<stop offset="0.64" stop-color="#008E8E"/>
<stop offset="0.78" stop-color="#005C5C"/>
<stop offset="0.92" stop-color="#002323"/>
<stop offset="1"/>
</radialGradient>
<linearGradient id="paint15_linear_117_1943" x1="15.1901" y1="3.64985" x2="9.1001" y2="15.2698" gradientUnits="userSpaceOnUse">
<stop stop-color="#A1E1FF"/>
<stop offset="1"/>
</linearGradient>
<linearGradient id="paint16_linear_117_1943" x1="189.943" y1="42.2281" x2="205.676" y2="42.2281" gradientUnits="userSpaceOnUse">
<stop stop-color="#A1E1FF"/>
<stop offset="1"/>
</linearGradient>
<radialGradient id="paint17_radial_117_1943" cx="0" cy="0" r="1" gradientUnits="userSpaceOnUse" gradientTransform="translate(382.104 502.928) scale(164.017 182.884)">
<stop stop-color="#00FFFF"/>
<stop offset="0.11" stop-color="#00FAFA"/>
<stop offset="0.23" stop-color="#00EDED"/>
<stop offset="0.36" stop-color="#00D6D6"/>
<stop offset="0.5" stop-color="#00B7B7"/>
<stop offset="0.64" stop-color="#008E8E"/>
<stop offset="0.78" stop-color="#005C5C"/>
<stop offset="0.92" stop-color="#002323"/>
<stop offset="1"/>
</radialGradient>
<radialGradient id="paint18_radial_117_1943" cx="0" cy="0" r="1" gradientUnits="userSpaceOnUse" gradientTransform="translate(265.785 598.022) scale(117.243 219.277)">
<stop stop-color="#00FFFF"/>
<stop offset="0.11" stop-color="#00FAFA"/>
<stop offset="0.23" stop-color="#00EDED"/>
<stop offset="0.36" stop-color="#00D6D6"/>
<stop offset="0.5" stop-color="#00B7B7"/>
<stop offset="0.64" stop-color="#008E8E"/>
<stop offset="0.78" stop-color="#005C5C"/>
<stop offset="0.92" stop-color="#002323"/>
<stop offset="1"/>
</radialGradient>
</defs>
</svg>
