<svg width="20" height="22" viewBox="0 0 20 22" fill="none" xmlns="http://www.w3.org/2000/svg">
<path fill-rule="evenodd" clip-rule="evenodd" d="M10 0C9.05126 0 7.46588 0.364375 5.97401 0.77C4.44776 1.1825 2.90913 1.67062 2.00438 1.96625C1.62611 2.09117 1.29074 2.32026 1.03682 2.62721C0.782892 2.93416 0.620702 3.30652 0.568882 3.7015C-0.250618 9.85738 1.65101 14.4196 3.95826 17.4377C4.93668 18.7288 6.1033 19.8658 7.41913 20.8106C7.94988 21.186 8.44213 21.4734 8.86013 21.67C9.24513 21.8515 9.65901 22 10 22C10.341 22 10.7535 21.8515 11.1399 21.67C11.6438 21.4251 12.1259 21.1376 12.5809 20.8106C13.8967 19.8658 15.0634 18.7288 16.0418 17.4377C18.349 14.4196 20.2506 9.85738 19.4311 3.7015C19.3794 3.30633 19.2173 2.93376 18.9633 2.62657C18.7094 2.31939 18.374 2.09004 17.9956 1.96487C16.6822 1.53424 15.3586 1.13538 14.026 0.768625C12.5341 0.36575 10.9488 0 10 0ZM7.25001 10.3125C7.06767 10.3125 6.8928 10.2401 6.76387 10.1111C6.63494 9.9822 6.56251 9.80734 6.56251 9.625C6.56251 9.44266 6.63494 9.2678 6.76387 9.13886C6.8928 9.00993 7.06767 8.9375 7.25001 8.9375H12.75C12.9323 8.9375 13.1072 9.00993 13.2361 9.13886C13.3651 9.2678 13.4375 9.44266 13.4375 9.625C13.4375 9.80734 13.3651 9.9822 13.2361 10.1111C13.1072 10.2401 12.9323 10.3125 12.75 10.3125H7.25001Z" fill="#686868"/>
</svg>
