<svg width="30" height="30" viewBox="0 0 30 30" fill="none" xmlns="http://www.w3.org/2000/svg">
<path d="M15.4784 3.63523C17.8344 3.6334 20.138 4.33036 22.0978 5.63794C24.0576 6.94552 25.5855 8.80497 26.4884 10.9811C27.3912 13.1572 27.6284 15.5522 27.1699 17.8631C26.7114 20.174 25.5778 22.297 23.9125 23.9636C22.2473 25.6302 20.1251 26.7654 17.8146 27.2257C15.504 27.686 13.1088 27.4507 10.932 26.5495C8.75521 25.6483 6.89457 24.1218 5.58547 22.163C4.27638 20.2042 3.57764 17.9012 3.57764 15.5452C3.57764 12.3881 4.83118 9.36014 7.06274 7.12685C9.29431 4.89356 12.3213 3.63767 15.4784 3.63523Z" fill="#151515" fill-opacity="0.5" stroke="url(#paint0_linear_117_2000)" stroke-width="2"/>
<path fill-rule="evenodd" clip-rule="evenodd" d="M15.4777 4.73523C17.6162 4.73326 19.7071 5.36556 21.4862 6.55217C23.2652 7.73879 24.6523 9.4264 25.472 11.4015C26.2917 13.3766 26.5072 15.5504 26.0912 17.648C25.6753 19.7456 24.6465 21.6727 23.1351 23.1855C21.6237 24.6983 19.6975 25.7289 17.6003 26.1468C15.5031 26.5647 13.3291 26.3512 11.3532 25.5333C9.37739 24.7154 7.6885 23.3299 6.50024 21.552C5.31198 19.7741 4.67774 17.6837 4.67773 15.5452C4.67773 12.68 5.81526 9.93192 7.84036 7.90494C9.86547 5.87796 12.6125 4.73788 15.4777 4.73523Z" fill="url(#paint1_linear_117_2000)"/>
<path fill-rule="evenodd" clip-rule="evenodd" d="M15.4777 5.69523C17.4263 5.69325 19.3316 6.26926 20.9528 7.35039C22.5739 8.43152 23.838 9.96919 24.585 11.7689C25.3321 13.5685 25.5286 15.5494 25.1497 17.4607C24.7707 19.3721 23.8334 21.1281 22.4562 22.5067C21.0791 23.8852 19.324 24.8244 17.413 25.2052C15.502 25.5861 13.521 25.3916 11.7206 24.6464C9.92015 23.9012 8.38119 22.6387 7.29842 21.0186C6.21564 19.3986 5.6377 17.4938 5.6377 15.5452C5.63769 12.9346 6.67409 10.4307 8.51917 8.58376C10.3642 6.73681 12.8671 5.69788 15.4777 5.69523Z" fill="url(#paint2_radial_117_2000)"/>
<path style="mix-blend-mode:multiply" opacity="0.75" fill-rule="evenodd" clip-rule="evenodd" d="M28.2776 15.2052C28.2776 18.6 26.9291 21.8557 24.5286 24.2562C22.1281 26.6567 18.8724 28.0052 15.4776 28.0052C12.0829 28.0052 8.82712 26.6567 6.42665 24.2562C4.02619 21.8557 2.67763 18.6 2.67763 15.2052C2.6768 13.1713 3.17831 11.1687 4.13762 9.37524C3.06773 11.3415 2.5275 13.5522 2.56995 15.7903C2.61239 18.0284 3.23606 20.2171 4.37973 22.1414C5.52341 24.0657 7.14777 25.6595 9.09342 26.7665C11.0391 27.8735 13.2391 28.4555 15.4776 28.4555C17.7161 28.4555 19.9162 27.8735 21.8618 26.7665C23.8075 25.6595 25.4318 24.0657 26.5755 22.1414C27.7192 20.2171 28.3429 18.0284 28.3853 15.7903C28.4277 13.5522 27.8875 11.3415 26.8176 9.37524C27.7769 11.1687 28.2784 13.1713 28.2776 15.2052Z" fill="url(#paint3_linear_117_2000)"/>
<path fill-rule="evenodd" clip-rule="evenodd" d="M19.6677 23.7452C19.7694 23.7749 19.8766 23.7804 19.9807 23.7613C20.0849 23.7422 20.1832 23.699 20.2677 23.6352C20.3542 23.5757 20.4255 23.4968 20.4758 23.4047C20.5262 23.3127 20.5542 23.2101 20.5577 23.1052C20.6977 21.1552 19.6177 17.3852 19.8977 16.5052C20.1777 15.6252 23.2777 13.2152 24.3077 11.5652C24.3654 11.4766 24.4026 11.3761 24.4165 11.2713C24.4304 11.1664 24.4207 11.0597 24.3882 10.9591C24.3556 10.8585 24.3009 10.7664 24.2282 10.6896C24.1554 10.6128 24.0664 10.5532 23.9677 10.5152C22.1677 9.78521 18.2377 9.6452 17.4977 9.1052C16.7577 8.5652 14.0577 2.4352 12.9577 1.8052C12.7677 1.6952 12.5577 1.89521 12.4177 2.06521C11.1677 3.55521 10.4177 8.56521 9.7077 9.06521C8.9977 9.56521 3.9977 8.70521 2.1877 9.43521C2.09058 9.47285 2.00324 9.53198 1.93224 9.60818C1.86123 9.68438 1.80839 9.77568 1.77769 9.87521C1.59769 10.4252 5.5477 14.4452 5.9677 14.8752C6.50254 15.328 6.95577 15.8692 7.30769 16.4752C7.58769 17.3552 6.5177 21.1252 6.6477 23.0752C6.6534 23.1796 6.68239 23.2814 6.73257 23.3731C6.78276 23.4648 6.85285 23.5441 6.9377 23.6052C7.02223 23.669 7.1205 23.7122 7.22467 23.7313C7.32884 23.7504 7.43604 23.7449 7.5377 23.7152C9.4277 23.2452 12.6877 21.0552 13.6077 21.0552C14.5277 21.0552 17.7777 23.2452 19.6677 23.7152V23.7452Z" fill="#FFD400"/>
<path fill-rule="evenodd" clip-rule="evenodd" d="M18.4777 22.1652C18.579 22.192 18.6849 22.196 18.788 22.177C18.891 22.158 18.9886 22.1164 19.0737 22.0552C19.1588 21.9941 19.2293 21.9148 19.2801 21.8232C19.3309 21.7315 19.3608 21.6298 19.3677 21.5252C19.5077 19.5752 18.4277 15.7952 18.7077 14.9252C18.9877 14.0552 22.0877 11.6352 23.1177 9.98521C23.1718 9.89564 23.2061 9.79547 23.2182 9.69148C23.2302 9.5875 23.2197 9.48213 23.1875 9.38254C23.1553 9.28295 23.102 9.19147 23.0313 9.11429C22.9605 9.03711 22.874 8.97603 22.7777 8.93521C20.9677 8.20521 17.0476 8.06521 16.3076 7.52521C15.5676 6.98521 14.2077 3.29521 12.9577 1.80521C12.892 1.72381 12.809 1.65815 12.7147 1.61304C12.6204 1.56792 12.5172 1.54449 12.4127 1.54449C12.3081 1.54449 12.2049 1.56792 12.1106 1.61304C12.0163 1.65815 11.9333 1.72381 11.8677 1.80521C10.6177 3.29521 9.26766 6.98521 8.51766 7.52521C7.76766 8.06521 3.85765 8.20521 2.04765 8.93521C1.95126 8.97603 1.86477 9.03711 1.79405 9.11429C1.72334 9.19147 1.67005 9.28295 1.6378 9.38254C1.60556 9.48213 1.5951 9.5875 1.60715 9.69148C1.6192 9.79547 1.65348 9.89564 1.70766 9.98521C2.70766 11.6352 5.83766 14.0552 6.11766 14.9252C6.39766 15.7952 5.31766 19.5752 5.45766 21.5252C5.46404 21.6294 5.49335 21.731 5.54347 21.8226C5.5936 21.9142 5.66331 21.9936 5.74765 22.0552C5.83219 22.119 5.93045 22.1622 6.03462 22.1813C6.13879 22.2004 6.24599 22.1949 6.34766 22.1652C8.23766 21.6952 11.4976 19.5052 12.4176 19.5052C13.3376 19.5052 16.5877 21.6952 18.4777 22.1652Z" fill="url(#paint4_radial_117_2000)"/>
<path style="mix-blend-mode:multiply" fill-rule="evenodd" clip-rule="evenodd" d="M22.3875 9.88521C20.1975 11.4552 18.9675 12.3952 17.0675 13.6452C16.9244 13.7278 16.8085 13.8503 16.7339 13.9977C16.6593 14.1451 16.6293 14.311 16.6475 14.4752C17.2075 16.2852 18.8075 19.1952 18.9175 21.0052C18.9875 22.0752 18.0775 21.7552 17.5375 21.5252C15.6975 20.7252 14.4475 19.6052 12.6775 18.6952C12.4073 18.5383 12.0952 18.4685 11.7838 18.4954C11.4725 18.5222 11.177 18.6444 10.9375 18.8452C9.86753 19.5452 7.93753 21.2452 6.37753 21.7452C5.93753 21.8852 5.64754 21.8452 5.47754 21.6452C5.51826 21.8086 5.6135 21.9532 5.74753 22.0552C5.83206 22.119 5.93033 22.1622 6.0345 22.1813C6.13867 22.2004 6.24587 22.1949 6.34753 22.1652C8.23753 21.6952 11.4975 19.5052 12.4175 19.5052C13.3375 19.5052 16.5875 21.6952 18.4775 22.1652C18.5788 22.192 18.6848 22.196 18.7879 22.177C18.8909 22.158 18.9885 22.1164 19.0736 22.0552C19.1586 21.9941 19.2291 21.9148 19.28 21.8232C19.3308 21.7315 19.3607 21.6298 19.3675 21.5252C19.5075 19.5752 18.4275 15.7952 18.7075 14.9252C18.9875 14.0552 22.0875 11.6352 23.1175 9.98521C23.1717 9.89564 23.206 9.79547 23.218 9.69148C23.2301 9.5875 23.2196 9.48213 23.1874 9.38254C23.1551 9.28295 23.1018 9.19147 23.0311 9.11429C22.9604 9.03711 22.8739 8.97603 22.7775 8.93521C20.9775 8.20521 17.0475 8.06521 16.3075 7.52521C15.5675 6.98521 14.2075 3.29521 12.9575 1.80521C12.8919 1.72381 12.8089 1.65815 12.7146 1.61304C12.6203 1.56792 12.5171 1.54449 12.4125 1.54449C12.308 1.54449 12.2048 1.56792 12.1105 1.61304C12.0161 1.65815 11.9331 1.72381 11.8675 1.80521C11.6467 2.06741 11.4492 2.3485 11.2775 2.64522C11.8175 2.06522 12.3875 1.71522 12.8875 2.50522C13.6907 3.93333 14.3154 5.45473 14.7475 7.03522C15.0575 7.95522 15.2475 8.33521 17.0775 8.46521C19.1675 8.61521 20.8975 8.75521 22.1475 8.96521C22.8275 9.07521 22.8475 9.55521 22.3875 9.88521Z" fill="url(#paint5_radial_117_2000)"/>
<path style="mix-blend-mode:screen" fill-rule="evenodd" clip-rule="evenodd" d="M11.2076 3.06523C10.6176 4.16523 10.0976 5.36523 9.54763 6.48523C9.07763 7.43523 8.89763 8.00523 7.71763 8.20523C6.26763 8.45523 4.77764 8.49523 3.31764 8.73523C1.85764 8.97523 1.31763 9.34523 2.51763 10.6152C3.19763 11.3652 6.30763 14.1752 6.51763 14.8652C6.55409 15.6795 6.49367 16.4952 6.33764 17.2952C6.33764 17.6252 6.44763 18.1252 6.99763 17.5152C11.2876 12.7752 12.3776 11.8852 18.6176 9.80522C19.2976 9.58522 19.9776 9.42523 20.6176 9.21523C20.8076 9.15523 21.0676 8.96523 20.5076 8.89523C18.5076 8.62523 16.9976 8.83523 15.3076 8.68523C14.5476 8.61523 14.0676 7.68522 13.8376 7.08522C13.3476 5.74522 13.0876 4.34523 12.6176 3.00523C12.2576 1.94523 11.6176 2.33523 11.1776 3.06523H11.2076Z" fill="url(#paint6_radial_117_2000)"/>
<path style="mix-blend-mode:screen" fill-rule="evenodd" clip-rule="evenodd" d="M6.21768 9.24521C5.81768 9.16521 5.91769 8.74522 6.28769 8.65522C6.87769 8.51522 7.50768 8.49522 8.10768 8.34522C8.40842 8.30085 8.69163 8.17618 8.92746 7.98435C9.16329 7.79252 9.343 7.54063 9.44768 7.25522C10.0877 5.93522 10.7377 4.25522 11.4477 3.06522C11.6977 2.63522 11.9777 2.70522 11.9077 3.17522C11.6817 4.6741 11.3475 6.15463 10.9077 7.60521C10.6977 8.35521 10.4577 9.16522 9.41768 9.28522C8.36106 9.40505 7.2943 9.40505 6.23769 9.28522L6.21768 9.24521ZM4.73769 8.76522C4.05955 8.80259 3.38821 8.92008 2.73769 9.11522C2.10769 9.32522 2.23768 9.46521 2.80768 9.49521C3.41702 9.53512 4.02833 9.53512 4.63768 9.49521C5.49768 9.42521 5.37769 8.72521 4.72769 8.77521L4.73769 8.76522Z" fill="url(#paint7_radial_117_2000)"/>
<path style="mix-blend-mode:screen" fill-rule="evenodd" clip-rule="evenodd" d="M17.0277 20.4052C16.7477 20.5252 16.0277 20.6752 16.8977 21.1252C17.247 21.3219 17.62 21.4732 18.0077 21.5752C18.8377 21.8152 18.8377 21.2152 18.7177 20.5752C18.4142 19.3091 17.9855 18.0764 17.4377 16.8952C17.2177 16.3752 16.9277 16.1052 17.0177 16.8952C17.1077 17.6852 17.2877 18.7552 17.3877 19.6952C17.3877 20.1252 17.3877 20.1752 17.0277 20.3352V20.4052Z" fill="url(#paint8_radial_117_2000)"/>
<path fill-rule="evenodd" clip-rule="evenodd" d="M5.57764 21.8852C5.96262 22.5186 6.41893 23.1058 6.93764 23.6352C7.02217 23.699 7.12044 23.7422 7.22461 23.7613C7.32878 23.7804 7.43597 23.7749 7.53764 23.7452C9.42764 23.2752 12.6876 21.0852 13.6076 21.0852C14.5276 21.0852 17.7776 23.2752 19.6676 23.7452C19.7693 23.7749 19.8765 23.7804 19.9807 23.7613C20.0848 23.7422 20.1831 23.699 20.2676 23.6352C20.3541 23.5758 20.4254 23.4968 20.4758 23.4048C20.5261 23.3127 20.5542 23.2101 20.5576 23.1052C20.6976 21.1552 19.6176 17.3852 19.8976 16.5052C20.1776 15.6252 23.2776 13.2152 24.3076 11.5652C24.3646 11.4755 24.4012 11.3744 24.415 11.2691C24.4289 11.1637 24.4195 11.0566 24.3876 10.9552C24.0145 10.286 23.5611 9.66475 23.0376 9.10522C23.0952 9.19081 23.1454 9.28114 23.1876 9.37523C23.2238 9.47541 23.2364 9.58262 23.2242 9.68845C23.2121 9.79428 23.1756 9.89586 23.1176 9.98523C22.1176 11.6352 18.9876 14.0552 18.7076 14.9252C18.4276 15.7952 19.5076 19.5752 19.3676 21.5252C19.3608 21.6298 19.3309 21.7315 19.2801 21.8232C19.2292 21.9148 19.1587 21.9941 19.0737 22.0553C18.9886 22.1164 18.891 22.158 18.788 22.177C18.6849 22.196 18.579 22.192 18.4776 22.1652C16.5876 21.6952 13.3276 19.5052 12.4176 19.5052C11.5076 19.5052 8.23764 21.6952 6.34764 22.1652C6.24597 22.1949 6.13878 22.2004 6.03461 22.1813C5.93044 22.1622 5.83217 22.119 5.74763 22.0552L5.57764 21.8852Z" fill="#848484"/>
<path fill-rule="evenodd" clip-rule="evenodd" d="M18.7075 14.9252L19.8975 16.5052C20.1875 15.6252 23.2775 13.2052 24.3075 11.5652C24.3644 11.4755 24.4011 11.3744 24.4149 11.2691C24.4287 11.1637 24.4194 11.0566 24.3875 10.9552L24.3175 10.8052C23.9499 10.1964 23.521 9.62681 23.0375 9.10522C23.0951 9.19081 23.1453 9.28114 23.1875 9.37523C23.2237 9.47541 23.2363 9.58262 23.2241 9.68845C23.212 9.79428 23.1755 9.89586 23.1175 9.98523L22.9675 10.2052C21.8075 11.8452 18.9675 14.0952 18.7075 14.9252Z" fill="url(#paint9_radial_117_2000)"/>
<path fill-rule="evenodd" clip-rule="evenodd" d="M19.8977 16.5452L18.7077 14.9652C18.4277 15.8352 19.5077 19.6152 19.3677 21.5652C19.3635 21.6699 19.3351 21.7722 19.2848 21.8642C19.2345 21.9561 19.1636 22.0352 19.0777 22.0952H19.0277L20.2177 23.6752H20.2677C20.3542 23.6158 20.4255 23.5368 20.4758 23.4447C20.5262 23.3527 20.5542 23.2501 20.5577 23.1452C20.6977 21.1952 19.6177 17.4252 19.8977 16.5452Z" fill="url(#paint10_radial_117_2000)"/>
<path fill-rule="evenodd" clip-rule="evenodd" d="M18.4775 22.1652C16.5875 21.6952 13.3275 19.5052 12.4175 19.5052L13.6075 21.0852C14.5275 21.0852 17.7875 23.2752 19.6675 23.7452C19.7598 23.7702 19.8562 23.7759 19.9508 23.7622C20.0454 23.7484 20.1361 23.7154 20.2175 23.6652L19.0275 22.0852C18.9461 22.1354 18.8554 22.1684 18.7608 22.1822C18.6662 22.1959 18.5698 22.1902 18.4775 22.1652Z" fill="url(#paint11_radial_117_2000)"/>
<path fill-rule="evenodd" clip-rule="evenodd" d="M7.53764 23.7452C9.42764 23.2752 12.6876 21.0852 13.6076 21.0852L12.4176 19.5452C11.5476 19.5452 8.57763 21.5452 6.66763 22.1152L6.34764 22.2052C6.24597 22.2349 6.13878 22.2404 6.03461 22.2213C5.93044 22.2022 5.83217 22.159 5.74763 22.0952L5.57764 21.9252C5.94547 22.5246 6.37443 23.0843 6.85764 23.5952L6.93764 23.6752C7.02217 23.739 7.12044 23.7822 7.22461 23.8013C7.32878 23.8204 7.43597 23.8149 7.53764 23.7852V23.7452Z" fill="url(#paint12_radial_117_2000)"/>
<path style="mix-blend-mode:multiply" fill-rule="evenodd" clip-rule="evenodd" d="M14.4478 21.0352C14.2136 20.8592 13.9315 20.7583 13.6387 20.7458C13.3459 20.7333 13.0563 20.8098 12.8078 20.9652C11.2678 21.6552 9.29783 23.0152 7.80783 23.3852C7.14783 23.5552 6.85783 23.4952 6.52783 23.2352C6.63948 23.3821 6.76691 23.5162 6.90784 23.6352C6.99237 23.699 7.09064 23.7422 7.19481 23.7613C7.29898 23.7804 7.40617 23.7749 7.50784 23.7452C9.39784 23.2752 12.6578 21.0852 13.5778 21.0852C14.4978 21.0852 17.7478 23.2752 19.6378 23.7452C19.7239 23.7598 19.8118 23.7598 19.8978 23.7452C19.3961 23.6304 18.9142 23.4416 18.4678 23.1852C17.1478 22.5352 15.6378 21.6152 14.4678 21.0152L14.4478 21.0352Z" fill="url(#paint13_radial_117_2000)"/>
<path style="mix-blend-mode:multiply" fill-rule="evenodd" clip-rule="evenodd" d="M20.3577 15.2852C19.4577 16.1452 19.3577 16.3652 19.5977 17.6252C19.8677 19.3052 20.2777 21.1152 20.4177 22.7952C20.4672 23.0394 20.4672 23.2911 20.4177 23.5352C20.5272 23.4181 20.5911 23.2655 20.5977 23.1052C20.7377 21.1552 19.6577 17.3852 19.9377 16.5052C20.2177 15.6252 23.3177 13.2152 24.3477 11.5652C24.4046 11.4755 24.4412 11.3744 24.4551 11.2691C24.4689 11.1637 24.4595 11.0566 24.4277 10.9552C24.2572 10.6008 24.0494 10.2655 23.8077 9.95523C24.1877 10.7452 24.1077 11.6452 22.9977 12.7852C22.1677 13.6452 21.2577 14.4152 20.3977 15.2452L20.3577 15.2852Z" fill="url(#paint14_radial_117_2000)"/>
<path style="mix-blend-mode:screen" fill-rule="evenodd" clip-rule="evenodd" d="M23.0476 10.3652C23.6676 10.2552 24.0476 11.1752 23.9976 11.6952C23.9528 11.8982 23.8787 12.0936 23.7776 12.2752C23.9694 12.0503 24.1464 11.8131 24.3076 11.5652C24.3645 11.4755 24.4012 11.3744 24.415 11.2691C24.4288 11.1637 24.4194 11.0566 24.3876 10.9552L24.3176 10.8052C23.9499 10.1964 23.521 9.62681 23.0376 9.10522C23.0951 9.19081 23.1453 9.28114 23.1876 9.37523C23.2238 9.47541 23.2363 9.58262 23.2242 9.68845C23.212 9.79428 23.1755 9.89586 23.1176 9.98523L22.9676 10.2052L22.7676 10.5452C22.854 10.4819 22.9528 10.4376 23.0576 10.4152L23.0476 10.3652Z" fill="url(#paint15_radial_117_2000)"/>
<path style="mix-blend-mode:screen" fill-rule="evenodd" clip-rule="evenodd" d="M6.7677 22.4652C6.7361 22.4251 6.70925 22.3815 6.6877 22.3352C6.65852 22.2579 6.65852 22.1726 6.6877 22.0952L6.41769 22.1652C6.31603 22.1949 6.20884 22.2004 6.10468 22.1813C6.00051 22.1622 5.90224 22.119 5.8177 22.0552L5.64771 21.8852C6.01554 22.4846 6.4445 23.0443 6.9277 23.5552L7.00771 23.6352C7.09224 23.699 7.19051 23.7422 7.29468 23.7613C7.39885 23.7804 7.50603 23.7749 7.6077 23.7452C7.79715 23.6982 7.98406 23.6414 8.16769 23.5752C8.0521 23.5763 7.93751 23.5538 7.8309 23.5091C7.7243 23.4644 7.62793 23.3985 7.5477 23.3152C7.27928 23.0487 7.02873 22.7647 6.7977 22.4652H6.7677Z" fill="url(#paint16_radial_117_2000)"/>
<path style="mix-blend-mode:screen" fill-rule="evenodd" clip-rule="evenodd" d="M18.5879 22.3452C18.8273 22.6129 19.0479 22.8969 19.2478 23.1952C19.3778 23.3752 19.5179 23.6152 19.4079 23.6752L19.6678 23.7452C19.7695 23.7749 19.8767 23.7804 19.9809 23.7613C20.085 23.7422 20.1833 23.699 20.2679 23.6352C20.3884 23.5438 20.479 23.4184 20.5278 23.2752C20.4764 23.273 20.4259 23.2603 20.3795 23.238C20.3331 23.2156 20.2917 23.1841 20.2579 23.1452C20.0379 22.8852 19.8378 22.6052 19.6378 22.3252C19.5458 22.2298 19.4736 22.117 19.4255 21.9934C19.3775 21.8698 19.3544 21.7378 19.3578 21.6052C19.3242 21.785 19.2243 21.9456 19.0779 22.0552C18.9933 22.119 18.895 22.1622 18.7909 22.1813C18.6867 22.2004 18.5795 22.1949 18.4779 22.1652L18.2979 22.1152C18.4052 22.1774 18.5028 22.2549 18.5879 22.3452Z" fill="url(#paint17_radial_117_2000)"/>
<defs>
<linearGradient id="paint0_linear_117_2000" x1="15.4876" y1="2.63522" x2="15.4876" y2="28.4552" gradientUnits="userSpaceOnUse">
<stop stop-color="#64C6C9"/>
<stop offset="1" stop-color="#42688A"/>
<stop offset="1" stop-color="#42688A"/>
</linearGradient>
<linearGradient id="paint1_linear_117_2000" x1="3479.23" y1="3481.45" x2="3479.23" y2="3014.02" gradientUnits="userSpaceOnUse">
<stop stop-color="#84C4FF"/>
<stop offset="1" stop-color="#0C355C"/>
</linearGradient>
<radialGradient id="paint2_radial_117_2000" cx="0" cy="0" r="1" gradientUnits="userSpaceOnUse" gradientTransform="translate(3171.63 2960.7) scale(194.045)">
<stop stop-color="#412D73"/>
<stop offset="1" stop-color="#25094F"/>
</radialGradient>
<linearGradient id="paint3_linear_117_2000" x1="4152.1" y1="3117.75" x2="4152.1" y2="2753.69" gradientUnits="userSpaceOnUse">
<stop stop-color="#074675"/>
<stop offset="1" stop-color="white"/>
</linearGradient>
<radialGradient id="paint4_radial_117_2000" cx="0" cy="0" r="1" gradientUnits="userSpaceOnUse" gradientTransform="translate(8.48765 5.68521) scale(20.22)">
<stop stop-color="#FCF800"/>
<stop offset="1" stop-color="#FC9700"/>
</radialGradient>
<radialGradient id="paint5_radial_117_2000" cx="0" cy="0" r="1" gradientUnits="userSpaceOnUse" gradientTransform="translate(11.1075 7.64521) scale(19.28)">
<stop stop-color="white"/>
<stop offset="0.1" stop-color="#FFFDF9"/>
<stop offset="0.22" stop-color="#FFF7E9"/>
<stop offset="0.36" stop-color="#FFECCF"/>
<stop offset="0.51" stop-color="#FFDEAA"/>
<stop offset="0.67" stop-color="#FFCC7A"/>
<stop offset="0.84" stop-color="#FFB641"/>
<stop offset="1" stop-color="#FF9D00"/>
</radialGradient>
<radialGradient id="paint6_radial_117_2000" cx="0" cy="0" r="1" gradientUnits="userSpaceOnUse" gradientTransform="translate(5.96763 1.82523) scale(17.74)">
<stop stop-color="#FFF261"/>
<stop offset="0.11" stop-color="#FAEE5F"/>
<stop offset="0.23" stop-color="#EDE15A"/>
<stop offset="0.36" stop-color="#D6CB52"/>
<stop offset="0.5" stop-color="#B7AD46"/>
<stop offset="0.64" stop-color="#8E8736"/>
<stop offset="0.78" stop-color="#5C5823"/>
<stop offset="0.92" stop-color="#23210D"/>
<stop offset="1"/>
</radialGradient>
<radialGradient id="paint7_radial_117_2000" cx="0" cy="0" r="1" gradientUnits="userSpaceOnUse" gradientTransform="translate(6.02768 2.51522) scale(12.85)">
<stop stop-color="#FFFACF"/>
<stop offset="1"/>
</radialGradient>
<radialGradient id="paint8_radial_117_2000" cx="0" cy="0" r="1" gradientUnits="userSpaceOnUse" gradientTransform="translate(14.6877 20.2152) scale(8.26999)">
<stop/>
<stop offset="0.08" stop-color="#232112"/>
<stop offset="0.22" stop-color="#5C582E"/>
<stop offset="0.36" stop-color="#8E8747"/>
<stop offset="0.5" stop-color="#B7AE5C"/>
<stop offset="0.64" stop-color="#D6CC6C"/>
<stop offset="0.77" stop-color="#EDE277"/>
<stop offset="0.89" stop-color="#FAEF7E"/>
<stop offset="1" stop-color="#FFF380"/>
</radialGradient>
<radialGradient id="paint9_radial_117_2000" cx="0" cy="0" r="1" gradientUnits="userSpaceOnUse" gradientTransform="translate(17.3575 7.43522) scale(9.41999)">
<stop stop-color="#FCAC00"/>
<stop offset="1" stop-color="#FF7300"/>
</radialGradient>
<radialGradient id="paint10_radial_117_2000" cx="0" cy="0" r="1" gradientUnits="userSpaceOnUse" gradientTransform="translate(12.7177 21.3252) scale(8.65996)">
<stop stop-color="#FC8F00"/>
<stop offset="1" stop-color="#E86900"/>
</radialGradient>
<radialGradient id="paint11_radial_117_2000" cx="0" cy="0" r="1" gradientUnits="userSpaceOnUse" gradientTransform="translate(1317.2 654.402) scale(84.396 46.1387)">
<stop stop-color="#FCAC00"/>
<stop offset="1" stop-color="#FF7300"/>
</radialGradient>
<radialGradient id="paint12_radial_117_2000" cx="0" cy="0" r="1" gradientUnits="userSpaceOnUse" gradientTransform="translate(1223.17 702.725) scale(69.5398 36.954)">
<stop stop-color="#FC8F00"/>
<stop offset="1" stop-color="#E86900"/>
</radialGradient>
<radialGradient id="paint13_radial_117_2000" cx="0" cy="0" r="1" gradientUnits="userSpaceOnUse" gradientTransform="translate(13.8578 16.5153) scale(10.93)">
<stop stop-color="white"/>
<stop offset="0.1" stop-color="#FEFBF9"/>
<stop offset="0.22" stop-color="#FBF0E9"/>
<stop offset="0.36" stop-color="#F6DECF"/>
<stop offset="0.51" stop-color="#F0C4AA"/>
<stop offset="0.67" stop-color="#E7A47A"/>
<stop offset="0.84" stop-color="#DD7C41"/>
<stop offset="1" stop-color="#D15000"/>
</radialGradient>
<radialGradient id="paint14_radial_117_2000" cx="0" cy="0" r="1" gradientUnits="userSpaceOnUse" gradientTransform="translate(814.558 2030.93) scale(51.6946 141.096)">
<stop stop-color="white"/>
<stop offset="0.1" stop-color="#FEFBF9"/>
<stop offset="0.22" stop-color="#FBF0E9"/>
<stop offset="0.36" stop-color="#F6DECF"/>
<stop offset="0.51" stop-color="#F0C4AA"/>
<stop offset="0.67" stop-color="#E7A47A"/>
<stop offset="0.84" stop-color="#DD7C41"/>
<stop offset="1" stop-color="#D15000"/>
</radialGradient>
<radialGradient id="paint15_radial_117_2000" cx="0" cy="0" r="1" gradientUnits="userSpaceOnUse" gradientTransform="translate(300.522 460.735) scale(7.82151 14.9941)">
<stop stop-color="#FFF261"/>
<stop offset="0.11" stop-color="#FAEE5F"/>
<stop offset="0.23" stop-color="#EDE15A"/>
<stop offset="0.36" stop-color="#D6CB52"/>
<stop offset="0.5" stop-color="#B7AD46"/>
<stop offset="0.64" stop-color="#8E8736"/>
<stop offset="0.78" stop-color="#5C5823"/>
<stop offset="0.92" stop-color="#23210D"/>
<stop offset="1"/>
</radialGradient>
<radialGradient id="paint16_radial_117_2000" cx="0" cy="0" r="1" gradientUnits="userSpaceOnUse" gradientTransform="translate(386.846 312.137) scale(12.1967 9.13405)">
<stop stop-color="#FFF261"/>
<stop offset="0.11" stop-color="#FAEE5F"/>
<stop offset="0.23" stop-color="#EDE15A"/>
<stop offset="0.36" stop-color="#D6CB52"/>
<stop offset="0.5" stop-color="#B7AD46"/>
<stop offset="0.64" stop-color="#8E8736"/>
<stop offset="0.78" stop-color="#5C5823"/>
<stop offset="0.92" stop-color="#23210D"/>
<stop offset="1"/>
</radialGradient>
<radialGradient id="paint17_radial_117_2000" cx="0" cy="0" r="1" gradientUnits="userSpaceOnUse" gradientTransform="translate(389.659 355.224) scale(11.4399 11.1177)">
<stop stop-color="#FFF261"/>
<stop offset="0.11" stop-color="#FAEE5F"/>
<stop offset="0.23" stop-color="#EDE15A"/>
<stop offset="0.36" stop-color="#D6CB52"/>
<stop offset="0.5" stop-color="#B7AD46"/>
<stop offset="0.64" stop-color="#8E8736"/>
<stop offset="0.78" stop-color="#5C5823"/>
<stop offset="0.92" stop-color="#23210D"/>
<stop offset="1"/>
</radialGradient>
</defs>
</svg>
